<svg xmlns="http://www.w3.org/2000/svg" viewBox="0 0 84 66">
  <path fill="#969696" fill-rule="evenodd" d="M0,6.50896028 C0,2.91416078 2.91745375,0 6.5,0 C10.0898509,0 13,2.91039094 13,6.50896028 L13,59.4910397 C13,63.0858392 10.0825462,66 6.5,66 C2.91014913,66 0,63.0896091 0,59.4910397 L0,6.50896028 Z M77.4910397,27 C81.0858392,27 84,29.9174538 84,33.5 C84,37.0898509 81.0896091,40 77.4910397,40 L24.5089603,40 C20.9141608,40 18,37.0825462 18,33.5 C18,29.9101491 20.9103909,27 24.5089603,27 L77.4910397,27 Z M63.4930812,4 C67.0867532,4 70,6.91745375 70,10.5 C70,14.0898509 67.0928303,17 63.4930812,17 L24.5069188,17 C20.9132468,17 18,14.0825462 18,10.5 C18,6.91014913 20.9071697,4 24.5069188,4 L63.4930812,4 Z M55.5076485,49 C59.0932752,49 62,51.9174538 62,55.5 C62,59.0898509 59.096021,62 55.5076485,62 L24.4923515,62 C20.9067248,62 18,59.0825462 18,55.5 C18,51.9101491 20.903979,49 24.4923515,49 L55.5076485,49 Z"/>
</svg>
