<?xml version="1.0" encoding="UTF-8"?>
<svg width="126px" height="126px" viewBox="0 0 126 126" version="1.1" xmlns="http://www.w3.org/2000/svg" xmlns:xlink="http://www.w3.org/1999/xlink">
    <!-- Generator: Sketch 48.2 (47327) - http://www.bohemiancoding.com/sketch -->
    <title>Group</title>
    <desc>Created with Sketch.</desc>
    <defs></defs>
    <g id="Page-1" stroke="none" stroke-width="1" fill="none" fill-rule="evenodd">
        <g id="Group">
            <path d="M126,65.7421875 C126,70.24221 124.945323,74.3671688 122.835938,78.1171875 C120.726552,81.8672062 117.890643,84.7968645 114.328125,86.90625 C114.421875,87.7500042 114.46875,88.7812439 114.46875,90 C114.46875,94.3593968 113.449229,98.3788879 111.410156,102.058594 C109.371084,105.7383 106.605486,108.656239 103.113281,110.8125 C99.6210763,112.968761 95.8125206,114.046875 91.6875,114.046875 C88.8281107,114.046875 86.1562624,113.531255 83.671875,112.5 C81.6562399,116.578145 78.7968935,119.847644 75.09375,122.308594 C71.3906065,124.769544 67.3359595,126 62.9296875,126 C58.5234155,126 54.4804871,124.792981 50.8007812,122.378906 C47.1210754,119.964832 44.2968848,116.671896 42.328125,112.5 C39.8437376,113.531255 37.1718893,114.046875 34.3125,114.046875 C30.1874794,114.046875 26.3672051,112.968761 22.8515625,110.8125 C19.3359199,108.656239 16.5468853,105.7383 14.484375,102.058594 C12.4218647,98.3788879 11.390625,94.3593968 11.390625,90 C11.390625,89.1093705 11.4843741,88.0781309 11.671875,86.90625 C8.10935719,84.7968645 5.27344805,81.8672062 3.1640625,78.1171875 C1.05467695,74.3671688 0,70.24221 0,65.7421875 C0,61.1952898 1.17186328,56.976582 3.515625,53.0859375 C5.85938672,49.195293 8.99998031,46.3125094 12.9375,44.4375 C11.9062448,41.6718612 11.390625,38.8593893 11.390625,36 C11.390625,31.6406032 12.4218647,27.6211121 14.484375,23.9414062 C16.5468853,20.2617004 19.3359199,17.3437608 22.8515625,15.1875 C26.3672051,13.0312392 30.1874794,11.953125 34.3125,11.953125 C37.1718893,11.953125 39.8437376,12.4687448 42.328125,13.5 C44.2968848,9.42185461 47.1445126,6.15235605 50.8710938,3.69140625 C54.5976749,1.23045645 58.6406032,0 63,0 C67.3593968,0 71.4023251,1.23045645 75.1289062,3.69140625 C78.8554874,6.15235605 81.7031152,9.42185461 83.671875,13.5 C86.1562624,12.4687448 88.8281107,11.953125 91.6875,11.953125 C95.8125206,11.953125 99.6210763,13.0312392 103.113281,15.1875 C106.605486,17.3437608 109.371084,20.2617004 111.410156,23.9414062 C113.449229,27.6211121 114.46875,31.6406032 114.46875,36 C114.46875,39.0468902 114.000005,41.8593621 113.0625,44.4375 C117.046895,46.3593846 120.187489,49.2421683 122.484375,53.0859375 C124.828137,56.976582 126,61.1952898 126,65.7421875 Z" id="" fill="#55ACEE"></path>
            <path d="M37.546875,67.9921875 C37.546875,69.2578188 37.9687458,70.3124958 38.8125,71.15625 L53.296875,85.640625 C54.5156311,86.5781297 55.7812434,87.046875 57.09375,87.046875 C58.4062566,87.046875 59.4843708,86.343757 60.328125,84.9375 L86.34375,45.984375 C86.8125023,45.2343712 87.046875,44.414067 87.046875,43.5234375 C87.046875,42.7734337 86.8710955,42.0703158 86.5195312,41.4140625 C86.167967,40.7578092 85.687503,40.2187521 85.078125,39.796875 C84.281246,39.2812474 83.4140672,39.0234375 82.4765625,39.0234375 C81.773434,39.0234375 81.0937533,39.1874984 80.4375,39.515625 C79.7812467,39.8437516 79.2187523,40.312497 78.75,40.921875 L55.828125,75.375 L45.28125,64.828125 C44.3906205,63.9374955 43.3359436,63.4921875 42.1171875,63.4921875 C40.9453066,63.4921875 39.8671924,63.9374955 38.8828125,64.828125 C37.992183,65.6718792 37.546875,66.7265562 37.546875,67.9921875 Z" id="Path" fill="#FFFFFF"></path>
        </g>
    </g>
</svg>