<svg fill="none" xmlns="http://www.w3.org/2000/svg" viewBox="0 0 26 26">
  <g clip-path="url(#agender__clip0)">
    <path fill="#182DB7" d="M-1.25 20.625h31.313v7.313H-1.25z"/>
    <path fill-rule="evenodd" clip-rule="evenodd" d="M-3.5 10.185h30v11.002h-30V10.185z" fill="#182DB7"/>
    <path fill-rule="evenodd" clip-rule="evenodd" d="M-3.5-.818h30v11.003h-30V-.818z" fill="#CD0D80"/>
    <path fill-rule="evenodd" clip-rule="evenodd" d="M-3.5 7.184h30v6.001h-30V7.184z" fill="#7D459A"/>
    <path fill-rule="evenodd" clip-rule="evenodd" d="M-2 17h30v9H-2v-9z" fill="#333"/>
    <path fill-rule="evenodd" clip-rule="evenodd" d="M-2 14h30v4.143H-2V14z" fill="#A0A0A0"/>
    <path fill-rule="evenodd" clip-rule="evenodd" d="M-2 11.5h30v3.786H-2V11.5z" fill="#fff"/>
    <path fill-rule="evenodd" clip-rule="evenodd" d="M-2 9h30v3.429H-2V9z" fill="#ABFB22"/>
    <path fill-rule="evenodd" clip-rule="evenodd" d="M-2 6h30v3.571H-2V6z" fill="#fff"/>
    <path fill-rule="evenodd" clip-rule="evenodd" d="M-2 3h30v3.714H-2V3z" fill="#A0A0A0"/>
    <path fill-rule="evenodd" clip-rule="evenodd" d="M-2 0h30v3.857H-2V0z" fill="#333"/>
  </g>
  <defs>
    <clipPath id="agender__clip0">
      <path fill="#fff" d="M0 0h26v26H0z"/>
    </clipPath>
  </defs>
</svg>
