<svg width="26" height="26" viewBox="0 0 26 26" fill="none" xmlns="http://www.w3.org/2000/svg">
<g clip-path="url(#clip0)">
<mask id="mask0" mask-type="alpha" maskUnits="userSpaceOnUse" x="0" y="0" width="26" height="27">
<path fill-rule="evenodd" clip-rule="evenodd" d="M2.81103 0.181824C1.25842 0.181824 0 1.44018 0 2.99244V19.2393C0 20.7917 1.25854 22.0499 2.81103 22.0499H9.05065L13.028 26.0273L17.0053 22.0499H23.189C24.7416 22.0499 26 20.7916 26 19.2393V2.99244C26 1.44008 24.7415 0.181824 23.189 0.181824H2.81103Z" fill="#C4C4C4"/>
</mask>
<g mask="url(#mask0)">
<rect x="-1.25" y="20.625" width="31.3125" height="7.3125" fill="#182DB7"/>
<path fill-rule="evenodd" clip-rule="evenodd" d="M-3.5 10.1847H26.5V21.1875H-3.5V10.1847Z" fill="#182DB7"/>
<path fill-rule="evenodd" clip-rule="evenodd" d="M-3.5 -0.818176H26.5V10.1847H-3.5V-0.818176Z" fill="#CD0D80"/>
<path fill-rule="evenodd" clip-rule="evenodd" d="M-3.5 7.18389H26.5V13.1854H-3.5V7.18389Z" fill="#7D459A"/>
<path fill-rule="evenodd" clip-rule="evenodd" d="M-2 17H28V26H-2V17Z" fill="#333333"/>
<path fill-rule="evenodd" clip-rule="evenodd" d="M-2 14H28V18.143H-2V14Z" fill="#A0A0A0"/>
<path fill-rule="evenodd" clip-rule="evenodd" d="M-2 11.5H28V15.286H-2V11.5Z" fill="white"/>
<path fill-rule="evenodd" clip-rule="evenodd" d="M-2 9H28V12.429H-2V9Z" fill="#ABFB22"/>
<path fill-rule="evenodd" clip-rule="evenodd" d="M-2 6H28V9.571H-2V6Z" fill="white"/>
<path fill-rule="evenodd" clip-rule="evenodd" d="M-2 3H28V6.714H-2V3Z" fill="#A0A0A0"/>
<path fill-rule="evenodd" clip-rule="evenodd" d="M-2 0H28V3.857H-2V0Z" fill="#333333"/>
</g>
</g>
<defs>
<clipPath id="clip0">
<rect width="26" height="26" fill="white"/>
</clipPath>
</defs>
</svg>
