<svg width="26" height="26" viewBox="0 0 26 26" fill="none" xmlns="http://www.w3.org/2000/svg">
<g clip-path="url(#clip0)">
<mask id="mask0" mask-type="alpha" maskUnits="userSpaceOnUse" x="0" y="0" width="26" height="27">
<path fill-rule="evenodd" clip-rule="evenodd" d="M2.81103 0.181824C1.25842 0.181824 0 1.44018 0 2.99244V19.2393C0 20.7917 1.25854 22.0499 2.81103 22.0499H9.05065L13.028 26.0273L17.0053 22.0499H23.189C24.7416 22.0499 26 20.7916 26 19.2393V2.99244C26 1.44008 24.7415 0.181824 23.189 0.181824H2.81103Z" fill="#C4C4C4"/>
</mask>
<g mask="url(#mask0)">
<rect x="-1.25" y="20.625" width="31.3125" height="7.3125" fill="#333333"/>
<path fill-rule="evenodd" clip-rule="evenodd" d="M0 1H28V21H0V1Z" fill="black"/>
<path fill-rule="evenodd" clip-rule="evenodd" d="M-1 17H29V27H14H-1V17Z" fill="#6160B1"/>
<path fill-rule="evenodd" clip-rule="evenodd" d="M-1 14H29V18.143H-1V14Z" fill="#7FABDD"/>
<path fill-rule="evenodd" clip-rule="evenodd" d="M-1 11.5H29V15.286H-1V11.5Z" fill="#D8C0F7"/>
<path fill-rule="evenodd" clip-rule="evenodd" d="M-1 9H29V12.429H-1V9Z" fill="white"/>
<path fill-rule="evenodd" clip-rule="evenodd" d="M-1 6H29V9.571H-1V6Z" fill="#D8C0F7"/>
<path fill-rule="evenodd" clip-rule="evenodd" d="M-1 3H29V6.714H-1V3Z" fill="#D993BD"/>
<path fill-rule="evenodd" clip-rule="evenodd" d="M-1 0H29V3.857H-1V0Z" fill="#AF599A"/>
</g>
</g>
<defs>
<clipPath id="clip0">
<rect width="26" height="26" fill="white"/>
</clipPath>
</defs>
</svg>
