<svg width="26" height="26" viewBox="0 0 26 26" fill="none" xmlns="http://www.w3.org/2000/svg">
<g clip-path="url(#clip0)">
<mask id="mask0" mask-type="alpha" maskUnits="userSpaceOnUse" x="0" y="0" width="26" height="27">
<path fill-rule="evenodd" clip-rule="evenodd" d="M2.81103 0.18182C1.25842 0.18182 0 1.44018 0 2.99244V19.2393C0 20.7917 1.25854 22.0499 2.81103 22.0499H9.05065L13.028 26.0273L17.0053 22.0499H23.189C24.7416 22.0499 26 20.7916 26 19.2393V2.99244C26 1.44007 24.7415 0.18182 23.189 0.18182H2.81103Z" fill="#C4C4C4"/>
</mask>
<g mask="url(#mask0)">
<rect x="-1.25" y="20.625" width="31.3125" height="7.3125" fill="#182DB7"/>
<path fill-rule="evenodd" clip-rule="evenodd" d="M-2 0H28V6H-2V0Z" fill="#420E47"/>
<path fill-rule="evenodd" clip-rule="evenodd" d="M-2 5H28V10H-2V5Z" fill="#630F6D"/>
<path fill-rule="evenodd" clip-rule="evenodd" d="M-2 9H28V14H-2V9Z" fill="#970C9C"/>
<path fill-rule="evenodd" clip-rule="evenodd" d="M-2 13H28V18H-2V13Z" fill="#B049B0"/>
<path fill-rule="evenodd" clip-rule="evenodd" d="M-2 17H28V27H-2V17Z" fill="#CA72CA"/>
<path fill-rule="evenodd" clip-rule="evenodd" d="M19.952 10.191C19.984 10.455 20 10.726 20 11C20 14.863 16.863 18 13 18C9.137 18 6 14.863 6 11C6 7.137 9.137 4 13 4C13.274 4 13.545 4.016 13.809 4.048C11.1 4.382 9 6.698 9 9.5C9 12.536 11.464 15 14.5 15C17.302 15 19.618 12.9 19.952 10.191Z" fill="#F4EC50"/>
<path d="M14.5 13C16.433 13 18 11.433 18 9.5C18 7.567 16.433 6 14.5 6C12.567 6 11 7.567 11 9.5C11 11.433 12.567 13 14.5 13Z" fill="white"/>
<path fill-rule="evenodd" clip-rule="evenodd" d="M-2 8H28V14H-2V8Z" fill="#AD00DD"/>
<path fill-rule="evenodd" clip-rule="evenodd" d="M-2 13H28V18H-2V13Z" fill="#343434"/>
<path fill-rule="evenodd" clip-rule="evenodd" d="M-2 17H28V29H-2V17Z" fill="#5642F0"/>
<path fill-rule="evenodd" clip-rule="evenodd" d="M-2 4H28V9H-2V4Z" fill="white"/>
<path fill-rule="evenodd" clip-rule="evenodd" d="M-2 0H28V5H-2V0Z" fill="#EA48A1"/>
</g>
</g>
<defs>
<clipPath id="clip0">
<rect width="26" height="26" fill="white"/>
</clipPath>
</defs>
</svg>
