<svg width="26" height="26" viewBox="0 0 26 26" fill="none" xmlns="http://www.w3.org/2000/svg">
<g clip-path="url(#clip0)">
<mask id="mask0" mask-type="alpha" maskUnits="userSpaceOnUse" x="0" y="0" width="26" height="27">
<path fill-rule="evenodd" clip-rule="evenodd" d="M2.81103 0.18182C1.25842 0.18182 0 1.44018 0 2.99244V19.2393C0 20.7917 1.25854 22.0499 2.81103 22.0499H9.05065L13.028 26.0273L17.0053 22.0499H23.189C24.7416 22.0499 26 20.7916 26 19.2393V2.99244C26 1.44007 24.7415 0.18182 23.189 0.18182H2.81103Z" fill="#C4C4C4"/>
</mask>
<g mask="url(#mask0)">
<path fill-rule="evenodd" clip-rule="evenodd" d="M-1 -5H27V27H-1V-5Z" fill="#FED800"/>
<path d="M13.097 3.501C13.446 3.507 13.794 3.534 14.14 3.586C14.841 3.694 15.527 3.901 16.17 4.202C17.729 4.93 19.012 6.198 19.759 7.748C20.053 8.358 20.264 9.008 20.383 9.674C20.523 10.456 20.537 11.26 20.427 12.047C20.32 12.811 20.094 13.557 19.759 14.252C19.367 15.065 18.827 15.805 18.174 16.428C17.497 17.073 16.7 17.591 15.835 17.945C14.937 18.312 13.97 18.5 13 18.5C12.03 18.5 11.063 18.312 10.165 17.945C9.30001 17.591 8.50301 17.073 7.82601 16.428C7.17301 15.805 6.63301 15.065 6.24101 14.252C5.90601 13.557 5.68001 12.811 5.57301 12.047C5.46301 11.26 5.47701 10.456 5.61701 9.674C5.74701 8.948 5.98501 8.242 6.32201 7.585C7.07901 6.109 8.32701 4.904 9.83101 4.202C10.473 3.901 11.159 3.694 11.86 3.586C12.206 3.534 12.554 3.507 12.903 3.501C13 3.5 13 3.5 13.097 3.501ZM12.942 6.5C12.305 6.513 11.678 6.65 11.101 6.92C10.197 7.342 9.44601 8.066 8.99201 8.954C8.80801 9.313 8.67201 9.697 8.59201 10.092C8.48801 10.597 8.47201 11.12 8.54401 11.631C8.60801 12.087 8.74301 12.533 8.94301 12.949C9.17901 13.438 9.50401 13.882 9.89601 14.257C10.303 14.644 10.781 14.955 11.301 15.168C11.839 15.388 12.419 15.5 13 15.5C13.581 15.5 14.161 15.388 14.699 15.168C15.219 14.955 15.697 14.644 16.104 14.257C16.496 13.882 16.821 13.437 17.057 12.949C17.249 12.55 17.381 12.124 17.448 11.686C17.526 11.177 17.516 10.654 17.419 10.147C17.336 9.715 17.189 9.295 16.983 8.905C16.526 8.04 15.786 7.334 14.899 6.92C14.322 6.65 13.695 6.513 13.058 6.5C13 6.5 13 6.5 12.942 6.5Z" fill="#7902AA"/>
</g>
</g>
<defs>
<clipPath id="clip0">
<rect width="26" height="26" fill="white"/>
</clipPath>
</defs>
</svg>
