<svg fill="none" xmlns="http://www.w3.org/2000/svg" viewBox="0 0 26 26">
  <g clip-path="url(#intersex__clip0)">
    <path fill="#578D3A" d="M-1.25 20.625h31.313v7.313H-1.25z"/>
    <path fill-rule="evenodd" clip-rule="evenodd" d="M-1-5h28v32H-1V-5z" fill="#DAC100"/>
    <path d="M13.097 3.501a7.482 7.482 0 013.073.701 7.56 7.56 0 013.589 3.546 7.47 7.47 0 01.668 4.299 7.473 7.473 0 01-2.253 4.381 7.543 7.543 0 01-2.339 1.517 7.508 7.508 0 01-8.009-1.517 7.473 7.473 0 01-2.253-4.381 7.467 7.467 0 01.749-4.462 7.564 7.564 0 013.509-3.383 7.464 7.464 0 013.072-.701h.194zM12.942 6.5a4.553 4.553 0 00-1.841.42 4.539 4.539 0 00-2.109 2.034 4.52 4.52 0 00-.049 3.995 4.544 4.544 0 002.358 2.219 4.498 4.498 0 004.803-.911 4.474 4.474 0 001.344-2.571 4.546 4.546 0 00-.029-1.539 4.468 4.468 0 00-.436-1.242 4.548 4.548 0 00-2.084-1.985 4.553 4.553 0 00-1.841-.42h-.116z" fill="#730694"/>
  </g>
  <defs>
    <clipPath id="intersex__clip0">
      <path fill="#fff" d="M0 0h26v26H0z"/>
    </clipPath>
  </defs>
</svg>
