<svg fill="none" xmlns="http://www.w3.org/2000/svg" viewBox="0 0 26 26">
  <g clip-path="url(#progress__clip0)">
    <path d="M34.688 22.195H.008V0h34.68v22.195z" fill="#750787"/>
    <path d="M34.688 22.195H.008V3.7h34.68v18.496z" fill="#004DFF"/>
    <path d="M34.688 22.195H.008V7.398h34.68v14.797z" fill="#008026"/>
    <path d="M34.688 22.195H.008V11.098h34.68v11.097z" fill="#FFED00"/>
    <path d="M34.688 22.195H.008v-7.398h34.68v7.398z" fill="#FF8C00"/>
    <path d="M35 27H0v-8h35v8z" fill="#E40303"/>
    <path d="M0 16.603l5.497-5.505L0 5.592v11.01z" fill="#fff"/>
    <path d="M0 16.603v2.796l8.214-8.301L0 2.796v2.796l5.497 5.506L0 16.603z" fill="#FFAFC8"/>
    <path d="M0 19.399v2.796l11.057-11.097L0 0v2.796l8.213 8.302L0 19.398z" fill="#74D7EE"/>
    <path d="M0 22.195l11.057-11.097L0 0h2.78l11.005 11.098L2.78 22.195H0z" fill="#613915"/>
    <path d="M2.78 22.195h2.775L16.56 11.098 5.555 0H2.781l11.005 11.098L2.78 22.195z" fill="#000"/>
  </g>
  <defs>
    <clipPath id="progress__clip0">
      <path fill="#fff" d="M0 0h26v26H0z"/>
    </clipPath>
  </defs>
</svg>
