<svg width="119" height="119" viewBox="0 0 119 119" fill="none" xmlns="http://www.w3.org/2000/svg">
<g clip-path="url(#clip0_902_182)">
<mask id="path-1-outside-1_902_182" maskUnits="userSpaceOnUse" x="1.14273" y="-1.34546" width="116" height="122" fill="black">
<rect fill="white" x="1.14273" y="-1.34546" width="116" height="122"/>
<path fill-rule="evenodd" clip-rule="evenodd" d="M72.0707 20.8142L59.5 8.65454L46.9293 20.8142L29.6148 18.3639L26.5911 35.5864L11.1427 43.7866L18.8236 59.5L11.1427 75.208L26.5911 83.4082L29.6148 100.631L46.9293 98.1858L59.5 110.345L72.0707 98.1858L89.3852 100.631L92.4089 83.4082L107.857 75.208L100.176 59.5L107.857 43.7866L92.4089 35.5864L89.3852 18.3639L72.0707 20.8142Z"/>
</mask>
<path fill-rule="evenodd" clip-rule="evenodd" d="M72.0707 20.8142L59.5 8.65454L46.9293 20.8142L29.6148 18.3639L26.5911 35.5864L11.1427 43.7866L18.8236 59.5L11.1427 75.208L26.5911 83.4082L29.6148 100.631L46.9293 98.1858L59.5 110.345L72.0707 98.1858L89.3852 100.631L92.4089 83.4082L107.857 75.208L100.176 59.5L107.857 43.7866L92.4089 35.5864L89.3852 18.3639L72.0707 20.8142Z" fill="white"/>
<path d="M59.5 8.65454L64.3668 3.62321L59.5 -1.08443L54.6332 3.62321L59.5 8.65454ZM72.0707 20.8142L67.2039 25.8455L69.6635 28.2246L73.0516 27.7451L72.0707 20.8142ZM46.9293 20.8142L45.9484 27.7451L49.3365 28.2246L51.7961 25.8455L46.9293 20.8142ZM29.6148 18.3639L30.5956 11.4329L23.8911 10.4841L22.7202 17.1534L29.6148 18.3639ZM26.5911 35.5864L29.8731 41.7693L32.8942 40.1657L33.4856 36.7968L26.5911 35.5864ZM11.1427 43.7866L7.86075 37.6037L1.88057 40.778L4.85385 46.8607L11.1427 43.7866ZM18.8236 59.5L25.1121 62.5749L26.6154 59.5005L25.1125 56.4259L18.8236 59.5ZM11.1427 75.208L4.85427 72.1331L1.87976 78.2161L7.86075 81.3909L11.1427 75.208ZM26.5911 83.4082L33.4856 82.1977L32.8942 78.8289L29.8731 77.2253L26.5911 83.4082ZM29.6148 100.631L22.7202 101.841L23.8908 108.508L30.5935 107.562L29.6148 100.631ZM46.9293 98.1858L51.7961 93.1545L49.3375 90.7763L45.9505 91.2546L46.9293 98.1858ZM59.5 110.345L54.6332 115.377L59.5 120.084L64.3668 115.377L59.5 110.345ZM72.0707 98.1858L73.0495 91.2546L69.6625 90.7763L67.2039 93.1545L72.0707 98.1858ZM89.3852 100.631L88.4065 107.562L95.1092 108.508L96.2798 101.841L89.3852 100.631ZM92.4089 83.4082L89.1269 77.2252L86.1058 78.8289L85.5144 82.1977L92.4089 83.4082ZM107.857 75.208L111.139 81.3909L117.12 78.2161L114.146 72.1331L107.857 75.208ZM100.176 59.5L93.8875 56.4259L92.3846 59.5005L93.8879 62.5749L100.176 59.5ZM107.857 43.7866L114.146 46.8607L117.119 40.778L111.139 37.6037L107.857 43.7866ZM92.4089 35.5864L85.5144 36.7968L86.1058 40.1657L89.1269 41.7693L92.4089 35.5864ZM89.3852 18.3639L96.2798 17.1534L95.1089 10.4841L88.4044 11.4329L89.3852 18.3639ZM54.6332 13.6859L67.2039 25.8455L76.9375 15.7828L64.3668 3.62321L54.6332 13.6859ZM51.7961 25.8455L64.3668 13.6859L54.6332 3.62321L42.0625 15.7828L51.7961 25.8455ZM28.6339 25.2948L45.9484 27.7451L47.9101 13.8832L30.5956 11.4329L28.6339 25.2948ZM33.4856 36.7968L36.5093 19.5743L22.7202 17.1534L19.6965 34.376L33.4856 36.7968ZM14.4247 49.9695L29.8731 41.7693L23.3091 29.4035L7.86075 37.6037L14.4247 49.9695ZM25.1125 56.4259L17.4316 40.7125L4.85385 46.8607L12.5348 62.5741L25.1125 56.4259ZM17.4312 78.2829L25.1121 62.5749L12.5352 56.4251L4.85427 72.1331L17.4312 78.2829ZM29.8731 77.2253L14.4247 69.0251L7.86075 81.3909L23.3091 89.5911L29.8731 77.2253ZM36.5093 99.4203L33.4856 82.1977L19.6965 84.6186L22.7202 101.841L36.5093 99.4203ZM45.9505 91.2546L28.636 93.6995L30.5935 107.562L47.908 105.117L45.9505 91.2546ZM64.3668 105.314L51.7961 93.1545L42.0625 103.217L54.6332 115.377L64.3668 105.314ZM67.2039 93.1545L54.6332 105.314L64.3668 115.377L76.9375 103.217L67.2039 93.1545ZM90.364 93.6995L73.0495 91.2546L71.092 105.117L88.4065 107.562L90.364 93.6995ZM85.5144 82.1977L82.4907 99.4203L96.2798 101.841L99.3035 84.6186L85.5144 82.1977ZM104.575 69.0251L89.1269 77.2252L95.6909 89.5911L111.139 81.3909L104.575 69.0251ZM93.8879 62.5749L101.569 78.2829L114.146 72.1331L106.465 56.4251L93.8879 62.5749ZM101.568 40.7125L93.8875 56.4259L106.465 62.5741L114.146 46.8607L101.568 40.7125ZM89.1269 41.7693L104.575 49.9695L111.139 37.6037L95.6909 29.4035L89.1269 41.7693ZM82.4907 19.5743L85.5144 36.7968L99.3035 34.376L96.2798 17.1534L82.4907 19.5743ZM73.0516 27.7451L90.3661 25.2948L88.4044 11.4329L71.0899 13.8832L73.0516 27.7451Z" fill="white" mask="url(#path-1-outside-1_902_182)"/>
<path fill-rule="evenodd" clip-rule="evenodd" d="M72.0707 20.8142L59.5 8.65454L46.9293 20.8142L29.6148 18.3639L26.5911 35.5864L11.1427 43.7866L18.8236 59.5L11.1427 75.208L26.5911 83.4082L29.6148 100.631L46.9293 98.1858L59.5 110.345L72.0707 98.1858L89.3852 100.631L92.4089 83.4082L107.857 75.208L100.176 59.5L107.857 43.7866L92.4089 35.5864L89.3852 18.3639L72.0707 20.8142ZM33.7203 61.788L52.2626 80.3304L83.0025 46.7616L75.7165 40.0164L51.9165 65.953L40.7088 54.7454L33.7203 61.788Z" fill="url(#paint0_linear_902_182)"/>
<path fill-rule="evenodd" clip-rule="evenodd" d="M70.8645 24.5194L59.5 13.5227L48.1355 24.5194L32.4762 22.3017L29.7446 37.8799L15.7729 45.2903L22.7182 59.5L15.7729 73.7097L29.7446 81.1201L32.4762 96.6983L48.1355 94.4806L59.5 105.477L70.8645 94.4806L86.5238 96.6983L89.2554 81.1201L103.227 73.7097L96.2818 59.5L103.227 45.2903L89.2554 37.8799L86.5238 22.3017L70.8645 24.5194ZM33.7149 61.7881L52.2626 80.3304L83.0025 46.7616L75.7165 40.0165L51.9165 65.9531L40.7088 54.7454L33.7149 61.7881Z" fill="url(#paint1_linear_902_182)"/>
<path fill-rule="evenodd" clip-rule="evenodd" d="M33.7149 61.788L52.2626 80.3304L82.824 46.9563L83.0296 46.7778L83.0025 54.3397L52.2626 87.9085L33.7149 69.3608L33.6986 61.761L33.7257 61.7772L33.7149 61.788Z" fill="#D18800"/>
</g>
<defs>
<linearGradient id="paint0_linear_902_182" x1="23.8595" y1="13.4957" x2="97.8126" y2="116.339" gradientUnits="userSpaceOnUse">
<stop stop-color="#F4E72A"/>
<stop offset="0.539" stop-color="#CD8105"/>
<stop offset="0.68" stop-color="#CB7B00"/>
<stop offset="1" stop-color="#F4E72A"/>
</linearGradient>
<linearGradient id="paint1_linear_902_182" x1="28.9657" y1="18.3639" x2="88.4981" y2="103.492" gradientUnits="userSpaceOnUse">
<stop stop-color="#F9E87F"/>
<stop offset="0.406" stop-color="#E2B719"/>
<stop offset="0.989" stop-color="#E2B719"/>
</linearGradient>
<clipPath id="clip0_902_182">
<rect width="119" height="119" fill="white"/>
</clipPath>
</defs>
</svg>
