<svg width="110" height="111" viewBox="0 0 110 111" fill="none" xmlns="http://www.w3.org/2000/svg">
<mask id="path-1-outside-1_803_229" maskUnits="userSpaceOnUse" x="0" y="0" width="110" height="111" fill="black">
<rect fill="white" width="110" height="111"/>
<path d="M44.7236 24.6903C45.7966 21.5433 45.6306 18.1493 44.2566 15.1323C42.8826 12.1153 40.4646 9.83933 37.4496 8.71833C32.9036 7.03133 27.8806 8.39733 24.6806 11.9603C22.3416 11.0253 19.7876 10.9673 17.3836 11.8103C14.6466 12.7713 12.4316 14.7873 11.1466 17.4863C10.0056 19.8843 9.7256 22.5863 10.3186 25.1413C9.1576 26.4073 8.2636 27.9173 7.6936 29.5903C5.5536 35.8703 8.5306 42.7733 14.3526 45.3143C14.5546 45.4023 14.7596 45.4853 14.9676 45.5623C18.7796 46.9763 22.9666 46.3033 26.1976 43.7623C27.9416 42.5903 33.0506 37.8263 35.3916 35.5673C43.7766 27.4703 44.4656 25.4503 44.7236 24.6903ZM74.6086 35.6443C76.9496 37.9043 82.0586 42.6683 83.8026 43.8393C87.0336 46.3803 91.2206 47.0543 95.0326 45.6393C95.2406 45.5613 95.4456 45.4793 95.6476 45.3913C101.471 42.8503 104.447 35.9473 102.307 29.6673C101.738 27.9943 100.843 26.4843 99.6816 25.2183C100.274 22.6623 99.9946 19.9613 98.8536 17.5633C97.5686 14.8633 95.3546 12.8483 92.6166 11.8863C90.2126 11.0423 87.6586 11.1013 85.3196 12.0363C82.1196 8.47333 77.0966 7.10733 72.5506 8.79433C69.5356 9.91533 67.1176 12.1913 65.7436 15.2083C64.3696 18.2253 64.2036 21.6193 65.2766 24.7663C65.5346 25.5263 66.2226 27.5463 74.6086 35.6443Z"/>
<path d="M99.2236 60.0473C99.2236 53.1033 95.5386 47.0813 90.1776 44.2243C90.8266 42.3123 91.1796 40.2463 91.1796 38.0713C91.1796 28.3583 83.9776 20.4993 75.0996 20.4993C73.1206 20.4993 71.2246 20.8683 69.4726 21.5983C66.8696 15.7223 61.3616 11.7003 55.0016 11.7003C48.6416 11.7003 43.1416 15.7303 40.5266 21.5893C38.7786 20.8643 36.8796 20.4903 34.8996 20.4903C26.0136 20.4903 18.8196 28.3573 18.8196 38.0713C18.8196 40.2423 19.1696 42.3083 19.8176 44.2243C14.4606 47.0813 10.7756 53.0943 10.7756 60.0473C10.7756 66.6183 14.0686 72.3453 18.9546 75.3693C18.8706 76.1163 18.8196 76.8633 18.8196 77.6283C18.8196 87.3413 26.0126 95.2093 34.8996 95.2093C36.8786 95.2093 38.7746 94.8313 40.5216 94.1103C43.1336 99.9733 48.6346 103.999 54.9976 103.999C61.3656 103.999 66.8656 99.9733 69.4726 94.1103C71.2206 94.8263 73.1156 95.2003 75.0996 95.2003C83.9856 95.2003 91.1796 87.3333 91.1796 77.6193C91.1796 76.8543 91.1286 76.1073 91.0406 75.3643C95.9176 72.3443 99.2236 66.6183 99.2236 60.0513V60.0473Z"/>
<path d="M30.2086 66.6923C34.5683 66.6923 38.1026 63.9716 38.1026 60.6153C38.1026 57.2591 34.5683 54.5383 30.2086 54.5383C25.8489 54.5383 22.3146 57.2591 22.3146 60.6153C22.3146 63.9716 25.8489 66.6923 30.2086 66.6923Z"/>
<path d="M83.0036 66.6923C87.3633 66.6923 90.8976 63.9716 90.8976 60.6153C90.8976 57.2591 87.3633 54.5383 83.0036 54.5383C78.6439 54.5383 75.1096 57.2591 75.1096 60.6153C75.1096 63.9716 78.6439 66.6923 83.0036 66.6923Z"/>
<path d="M56.3096 91.1483C48.6476 91.1483 41.3196 87.7283 36.2056 81.7663C33.9236 79.1063 34.1406 75.0183 36.6896 72.6373C39.2386 70.2553 43.1556 70.4823 45.4376 73.1423C48.2046 76.3683 52.1666 78.2183 56.3096 78.2183C60.4516 78.2183 64.4146 76.3683 67.1816 73.1423C69.4636 70.4813 73.3806 70.2553 75.9296 72.6373C78.4796 75.0183 78.6956 79.1063 76.4136 81.7663C71.2986 87.7283 63.9716 91.1483 56.3096 91.1483Z"/>
<path d="M56.3096 85.4283C50.2036 85.4283 44.3646 82.7023 40.2886 77.9503C40.0256 77.6433 40.0506 77.1713 40.3446 76.8973C40.6386 76.6223 41.0906 76.6483 41.3536 76.9553C45.1586 81.3913 50.6096 83.9353 56.3096 83.9353C62.0086 83.9353 67.4596 81.3913 71.2646 76.9553C71.5276 76.6483 71.9796 76.6213 72.2746 76.8973C72.5686 77.1713 72.5936 77.6433 72.3306 77.9503C68.2546 82.7033 62.4146 85.4283 56.3096 85.4283Z"/>
<path d="M66.6226 58.8633C66.6226 64.6363 62.1386 69.3153 56.6066 69.3153C51.0746 69.3153 46.5906 64.6363 46.5906 58.8633C46.5906 53.0903 51.0746 48.4103 56.6066 48.4103C62.1386 48.4103 66.6226 53.0903 66.6226 58.8633Z"/>
<path d="M38.1026 46.3673C41.355 46.3673 43.9916 42.0814 43.9916 36.7943C43.9916 31.5073 41.355 27.2213 38.1026 27.2213C34.8502 27.2213 32.2136 31.5073 32.2136 36.7943C32.2136 42.0814 34.8502 46.3673 38.1026 46.3673Z"/>
<path d="M72.5126 46.3673C75.765 46.3673 78.4016 42.0814 78.4016 36.7943C78.4016 31.5073 75.765 27.2213 72.5126 27.2213C69.2602 27.2213 66.6236 31.5073 66.6236 36.7943C66.6236 42.0814 69.2602 46.3673 72.5126 46.3673Z"/>
</mask>
<path d="M44.7236 24.6903C45.7966 21.5433 45.6306 18.1493 44.2566 15.1323C42.8826 12.1153 40.4646 9.83933 37.4496 8.71833C32.9036 7.03133 27.8806 8.39733 24.6806 11.9603C22.3416 11.0253 19.7876 10.9673 17.3836 11.8103C14.6466 12.7713 12.4316 14.7873 11.1466 17.4863C10.0056 19.8843 9.7256 22.5863 10.3186 25.1413C9.1576 26.4073 8.2636 27.9173 7.6936 29.5903C5.5536 35.8703 8.5306 42.7733 14.3526 45.3143C14.5546 45.4023 14.7596 45.4853 14.9676 45.5623C18.7796 46.9763 22.9666 46.3033 26.1976 43.7623C27.9416 42.5903 33.0506 37.8263 35.3916 35.5673C43.7766 27.4703 44.4656 25.4503 44.7236 24.6903ZM74.6086 35.6443C76.9496 37.9043 82.0586 42.6683 83.8026 43.8393C87.0336 46.3803 91.2206 47.0543 95.0326 45.6393C95.2406 45.5613 95.4456 45.4793 95.6476 45.3913C101.471 42.8503 104.447 35.9473 102.307 29.6673C101.738 27.9943 100.843 26.4843 99.6816 25.2183C100.274 22.6623 99.9946 19.9613 98.8536 17.5633C97.5686 14.8633 95.3546 12.8483 92.6166 11.8863C90.2126 11.0423 87.6586 11.1013 85.3196 12.0363C82.1196 8.47333 77.0966 7.10733 72.5506 8.79433C69.5356 9.91533 67.1176 12.1913 65.7436 15.2083C64.3696 18.2253 64.2036 21.6193 65.2766 24.7663C65.5346 25.5263 66.2226 27.5463 74.6086 35.6443Z" fill="#0092FF"/>
<path d="M99.2236 60.0473C99.2236 53.1033 95.5386 47.0813 90.1776 44.2243C90.8266 42.3123 91.1796 40.2463 91.1796 38.0713C91.1796 28.3583 83.9776 20.4993 75.0996 20.4993C73.1206 20.4993 71.2246 20.8683 69.4726 21.5983C66.8696 15.7223 61.3616 11.7003 55.0016 11.7003C48.6416 11.7003 43.1416 15.7303 40.5266 21.5893C38.7786 20.8643 36.8796 20.4903 34.8996 20.4903C26.0136 20.4903 18.8196 28.3573 18.8196 38.0713C18.8196 40.2423 19.1696 42.3083 19.8176 44.2243C14.4606 47.0813 10.7756 53.0943 10.7756 60.0473C10.7756 66.6183 14.0686 72.3453 18.9546 75.3693C18.8706 76.1163 18.8196 76.8633 18.8196 77.6283C18.8196 87.3413 26.0126 95.2093 34.8996 95.2093C36.8786 95.2093 38.7746 94.8313 40.5216 94.1103C43.1336 99.9733 48.6346 103.999 54.9976 103.999C61.3656 103.999 66.8656 99.9733 69.4726 94.1103C71.2206 94.8263 73.1156 95.2003 75.0996 95.2003C83.9856 95.2003 91.1796 87.3333 91.1796 77.6193C91.1796 76.8543 91.1286 76.1073 91.0406 75.3643C95.9176 72.3443 99.2236 66.6183 99.2236 60.0513V60.0473Z" fill="#FEE7B8"/>
<path d="M30.2086 66.6923C34.5683 66.6923 38.1026 63.9716 38.1026 60.6153C38.1026 57.2591 34.5683 54.5383 30.2086 54.5383C25.8489 54.5383 22.3146 57.2591 22.3146 60.6153C22.3146 63.9716 25.8489 66.6923 30.2086 66.6923Z" fill="#F97E58"/>
<path d="M83.0036 66.6923C87.3633 66.6923 90.8976 63.9716 90.8976 60.6153C90.8976 57.2591 87.3633 54.5383 83.0036 54.5383C78.6439 54.5383 75.1096 57.2591 75.1096 60.6153C75.1096 63.9716 78.6439 66.6923 83.0036 66.6923Z" fill="#F97E58"/>
<path d="M56.3096 91.1483C48.6476 91.1483 41.3196 87.7283 36.2056 81.7663C33.9236 79.1063 34.1406 75.0183 36.6896 72.6373C39.2386 70.2553 43.1556 70.4823 45.4376 73.1423C48.2046 76.3683 52.1666 78.2183 56.3096 78.2183C60.4516 78.2183 64.4146 76.3683 67.1816 73.1423C69.4636 70.4813 73.3806 70.2553 75.9296 72.6373C78.4796 75.0183 78.6956 79.1063 76.4136 81.7663C71.2986 87.7283 63.9716 91.1483 56.3096 91.1483Z" fill="#CC3333"/>
<path d="M56.3096 85.4283C50.2036 85.4283 44.3646 82.7023 40.2886 77.9503C40.0256 77.6433 40.0506 77.1713 40.3446 76.8973C40.6386 76.6223 41.0906 76.6483 41.3536 76.9553C45.1586 81.3913 50.6096 83.9353 56.3096 83.9353C62.0086 83.9353 67.4596 81.3913 71.2646 76.9553C71.5276 76.6483 71.9796 76.6213 72.2746 76.8973C72.5686 77.1713 72.5936 77.6433 72.3306 77.9503C68.2546 82.7033 62.4146 85.4283 56.3096 85.4283Z" fill="#FF6700"/>
<path d="M66.6226 58.8633C66.6226 64.6363 62.1386 69.3153 56.6066 69.3153C51.0746 69.3153 46.5906 64.6363 46.5906 58.8633C46.5906 53.0903 51.0746 48.4103 56.6066 48.4103C62.1386 48.4103 66.6226 53.0903 66.6226 58.8633Z" fill="#CC3333"/>
<path d="M38.1026 46.3673C41.355 46.3673 43.9916 42.0814 43.9916 36.7943C43.9916 31.5073 41.355 27.2213 38.1026 27.2213C34.8502 27.2213 32.2136 31.5073 32.2136 36.7943C32.2136 42.0814 34.8502 46.3673 38.1026 46.3673Z" fill="#282D35"/>
<path d="M72.5126 46.3673C75.765 46.3673 78.4016 42.0814 78.4016 36.7943C78.4016 31.5073 75.765 27.2213 72.5126 27.2213C69.2602 27.2213 66.6236 31.5073 66.6236 36.7943C66.6236 42.0814 69.2602 46.3673 72.5126 46.3673Z" fill="#282D35"/>
<path d="M44.7236 24.6903L38.0981 22.4313L38.0951 22.4401L44.7236 24.6903ZM37.4496 8.71833L39.8891 2.15717L39.885 2.15564L37.4496 8.71833ZM24.6806 11.9603L22.0823 18.4602L26.6219 20.2749L29.8885 16.6377L24.6806 11.9603ZM17.3836 11.8103L15.0672 5.2047L15.0646 5.20562L17.3836 11.8103ZM11.1466 17.4863L4.82636 14.4773L4.82566 14.4787L11.1466 17.4863ZM10.3186 25.1413L15.4777 29.8725L17.9716 27.1531L17.1374 23.5587L10.3186 25.1413ZM7.6936 29.5903L14.3195 31.8482L14.3196 31.8478L7.6936 29.5903ZM14.3526 45.3143L11.5525 51.7299L11.5569 51.7318L14.3526 45.3143ZM14.9676 45.5623L17.4021 38.9993L17.3978 38.9977L14.9676 45.5623ZM26.1976 43.7623L22.2932 37.9524L22.076 38.0983L21.8704 38.2601L26.1976 43.7623ZM35.3916 35.5673L40.2523 40.6045L40.2541 40.6028L35.3916 35.5673ZM74.6086 35.6443L69.7461 40.6798L69.7468 40.6804L74.6086 35.6443ZM83.8026 43.8393L88.1298 38.3371L87.9231 38.1745L87.7047 38.0278L83.8026 43.8393ZM95.0326 45.6393L97.4686 52.2018L97.4795 52.1977L97.4905 52.1936L95.0326 45.6393ZM95.6476 45.3913L98.4433 51.8088L98.4473 51.8071L95.6476 45.3913ZM102.307 29.6673L95.6794 31.9213L95.6807 31.9252L102.307 29.6673ZM99.6816 25.2183L92.8621 23.6389L92.03 27.2316L94.5225 29.9495L99.6816 25.2183ZM98.8536 17.5633L105.175 14.5557L105.174 14.5552L98.8536 17.5633ZM92.6166 11.8863L94.937 5.28211L94.9354 5.28155L92.6166 11.8863ZM85.3196 12.0363L80.1117 16.7137L83.3783 20.3509L87.9179 18.5362L85.3196 12.0363ZM72.5506 8.79433L70.1152 2.23164L70.1111 2.23317L72.5506 8.79433ZM65.2766 24.7663L71.9051 22.5161L71.9021 22.5073L65.2766 24.7663ZM90.1776 44.2243L83.5491 41.9744L81.6377 47.6052L86.8855 50.4019L90.1776 44.2243ZM69.4726 21.5983L63.0725 24.4335L65.8454 30.693L72.1649 28.0599L69.4726 21.5983ZM40.5266 21.5893L37.8448 28.0552L44.1408 30.6666L46.9188 24.4423L40.5266 21.5893ZM19.8176 44.2243L23.1117 50.4008L28.351 47.6066L26.4486 41.9817L19.8176 44.2243ZM18.9546 75.3693L25.9108 76.1515L26.4059 71.7488L22.6385 69.4171L18.9546 75.3693ZM40.5216 94.1103L46.9158 91.2617L44.145 85.0422L37.8511 87.6397L40.5216 94.1103ZM69.4726 94.1103L72.1259 87.6327L65.8374 85.0569L63.0764 91.2663L69.4726 94.1103ZM91.0406 75.3643L87.3553 69.413L83.5648 71.7602L84.0892 76.1876L91.0406 75.3643ZM36.2056 81.7663L41.5188 77.2089L41.5184 77.2085L36.2056 81.7663ZM36.6896 72.6373L41.4679 77.7528L41.469 77.7518L36.6896 72.6373ZM45.4376 73.1423L50.7509 68.585L50.7504 68.5845L45.4376 73.1423ZM67.1816 73.1423L72.4949 77.6996L72.4953 77.6992L67.1816 73.1423ZM75.9296 72.6373L71.1502 77.7518L71.1523 77.7537L75.9296 72.6373ZM76.4136 81.7663L81.7263 86.3243L81.7264 86.3242L76.4136 81.7663ZM40.2886 77.9503L34.9726 82.5044L34.9754 82.5077L40.2886 77.9503ZM40.3446 76.8973L45.1171 82.0182L45.1264 82.0095L40.3446 76.8973ZM41.3536 76.9553L36.0376 81.5094L36.0404 81.5127L41.3536 76.9553ZM71.2646 76.9553L76.5778 81.5127L76.5806 81.5094L71.2646 76.9553ZM72.2746 76.8973L67.4922 82.009L67.5021 82.0182L72.2746 76.8973ZM72.3306 77.9503L77.6443 82.5072L77.6466 82.5044L72.3306 77.9503ZM51.3491 26.9493C52.9964 22.1178 52.7432 16.8777 50.6271 12.2311L37.8861 18.0336C38.518 19.421 38.5968 20.9688 38.0981 22.4313L51.3491 26.9493ZM50.6271 12.2311C48.5061 7.57402 44.7039 3.94733 39.8891 2.15717L35.0101 15.2795C36.2254 15.7313 37.2591 16.6566 37.8861 18.0336L50.6271 12.2311ZM39.885 2.15564C32.5242 -0.575923 24.5041 1.68082 19.4727 7.28299L29.8885 16.6377C31.2571 15.1138 33.283 14.6386 35.0142 15.281L39.885 2.15564ZM27.2789 5.46042C23.3647 3.89573 19.0646 3.80295 15.0672 5.2047L19.7 18.416C20.5106 18.1317 21.3186 18.1549 22.0823 18.4602L27.2789 5.46042ZM15.0646 5.20562C10.5085 6.80532 6.88537 10.1525 4.82636 14.4773L17.4668 20.4954C17.9778 19.4221 18.7847 18.7373 19.7026 18.415L15.0646 5.20562ZM4.82566 14.4787C2.99821 18.3194 2.55214 22.6406 3.49985 26.7239L17.1374 23.5587C16.8991 22.5321 17.013 21.4493 17.4676 20.4939L4.82566 14.4787ZM5.15954 20.4102C3.33185 22.4031 1.94445 24.7593 1.06762 27.3328L14.3196 31.8478C14.5828 31.0754 14.9834 30.4115 15.4777 29.8725L5.15954 20.4102ZM1.06774 27.3325C-2.19376 36.9036 2.24578 47.668 11.5525 51.7299L17.1527 38.8988C14.8154 37.8787 13.301 34.8371 14.3195 31.8482L1.06774 27.3325ZM11.5569 51.7318C11.871 51.8686 12.198 52.0013 12.5374 52.127L17.3978 38.9977C17.3212 38.9694 17.2382 38.936 17.1483 38.8969L11.5569 51.7318ZM12.5332 52.1254C18.6645 54.3997 25.4073 53.2893 30.5248 49.2646L21.8704 38.2601C20.5259 39.3174 18.8947 39.553 17.4021 38.9993L12.5332 52.1254ZM30.102 49.5723C31.4807 48.6458 33.5937 46.7794 35.2707 45.2599C37.1191 43.5852 39.0354 41.7789 40.2523 40.6045L30.5309 30.5302C29.4068 31.6148 27.5981 33.3199 25.8707 34.885C25.0063 35.6682 24.1906 36.3906 23.5069 36.9717C23.1653 37.2621 22.8775 37.4995 22.6471 37.6823C22.3991 37.879 22.2915 37.9535 22.2932 37.9524L30.102 49.5723ZM40.2541 40.6028C48.6527 32.4927 50.4993 29.4525 51.3521 26.9405L38.0951 22.4401C38.0692 22.5165 38.0937 22.4408 38.1309 22.3516C38.1484 22.3095 38.1647 22.2736 38.1782 22.2455C38.1914 22.2181 38.199 22.2044 38.1984 22.2054C38.1914 22.2182 38.0447 22.4814 37.5777 23.0825C36.6196 24.3156 34.6199 26.5816 30.5291 30.5319L40.2541 40.6028ZM69.7468 40.6804C70.9643 41.8559 72.8809 43.6628 74.7295 45.3377C76.4063 46.857 78.5203 48.7241 79.9005 49.6508L87.7047 38.0278C87.7071 38.0294 87.5999 37.9553 87.3521 37.7588C87.1219 37.5763 86.8343 37.3391 86.4928 37.0489C85.8093 36.468 84.9938 35.7458 84.1295 34.9627C82.4023 33.3978 80.5939 31.6928 79.4705 30.6082L69.7468 40.6804ZM79.4754 49.3416C84.5919 53.3654 91.3351 54.4785 97.4686 52.2018L92.5966 39.0769C91.1061 39.6302 89.4754 39.3952 88.1298 38.3371L79.4754 49.3416ZM97.4905 52.1936C97.7922 52.0805 98.1118 51.9532 98.4433 51.8088L92.8519 38.9739C92.7794 39.0054 92.689 39.0422 92.5747 39.085L97.4905 52.1936ZM98.4473 51.8071C107.756 47.745 112.194 36.9799 108.932 27.4095L95.6807 31.9252C96.6995 34.9147 95.1851 37.9557 92.8479 38.9756L98.4473 51.8071ZM108.934 27.4134C108.057 24.8349 106.667 22.4783 104.841 20.4872L94.5225 29.9495C95.0185 30.4903 95.4184 31.1538 95.6794 31.9213L108.934 27.4134ZM106.501 26.7978C107.446 22.7174 107.003 18.3982 105.175 14.5557L92.5327 20.5709C92.9864 21.5245 93.1011 22.6072 92.8621 23.6389L106.501 26.7978ZM105.174 14.5552C103.115 10.2284 99.4926 6.88274 94.937 5.28211L90.2962 18.4906C91.2166 18.8139 92.0222 19.4983 92.5329 20.5715L105.174 14.5552ZM94.9354 5.28155C90.9347 3.87697 86.6337 3.97245 82.7213 5.53642L87.9179 18.5362C88.6835 18.2302 89.4905 18.2077 90.2978 18.4911L94.9354 5.28155ZM90.5275 7.35899C85.4961 1.75682 77.476 -0.499923 70.1152 2.23164L74.986 15.357C76.7172 14.7146 78.7431 15.1898 80.1117 16.7137L90.5275 7.35899ZM70.1111 2.23317C65.2964 4.02333 61.4941 7.65002 59.3731 12.3071L72.1141 18.1096C72.7411 16.7326 73.7749 15.8073 74.9901 15.3555L70.1111 2.23317ZM59.3731 12.3071C57.257 16.9537 57.0038 22.1938 58.6511 27.0254L71.9021 22.5073C71.4034 21.0448 71.4822 19.497 72.1141 18.1096L59.3731 12.3071ZM58.6481 27.0165C59.5007 29.528 61.3457 32.5679 69.7461 40.6798L79.4711 30.6089C75.3799 26.6581 73.3804 24.3921 72.4225 23.1591C71.9556 22.5581 71.8091 22.295 71.8022 22.2824C71.8016 22.2814 71.8092 22.2951 71.8224 22.3226C71.8359 22.3507 71.8522 22.3865 71.8697 22.4286C71.9068 22.5176 71.9313 22.5933 71.9051 22.5161L58.6481 27.0165ZM106.224 60.0473C106.224 50.6594 101.236 42.1854 93.4697 38.0468L86.8855 50.4019C89.8416 51.9773 92.2236 55.5473 92.2236 60.0473H106.224ZM96.8062 46.4743C97.7018 43.8356 98.1796 41.0095 98.1796 38.0713H84.1796C84.1796 39.4832 83.9514 40.789 83.5491 41.9744L96.8062 46.4743ZM98.1796 38.0713C98.1796 25.0869 88.4125 13.4993 75.0996 13.4993V27.4993C79.5427 27.4993 84.1796 31.6298 84.1796 38.0713H98.1796ZM75.0996 13.4993C72.2415 13.4993 69.426 14.0344 66.7803 15.1368L72.1649 28.0599C73.0232 27.7023 73.9997 27.4993 75.0996 27.4993V13.4993ZM75.8727 18.7631C72.2942 10.6849 64.4747 4.70033 55.0016 4.70033V18.7003C58.2485 18.7003 61.445 20.7597 63.0725 24.4335L75.8727 18.7631ZM55.0016 4.70033C45.5206 4.70033 37.7214 10.6995 34.1344 18.7363L46.9188 24.4423C48.5618 20.7612 51.7626 18.7003 55.0016 18.7003V4.70033ZM43.2084 15.1234C40.5815 14.0339 37.7682 13.4903 34.8996 13.4903V27.4903C35.991 27.4903 36.9757 27.6948 37.8448 28.0552L43.2084 15.1234ZM34.8996 13.4903C21.5724 13.4903 11.8196 25.0928 11.8196 38.0713H25.8196C25.8196 31.6218 30.4549 27.4903 34.8996 27.4903V13.4903ZM11.8196 38.0713C11.8196 41.0002 12.2927 43.824 13.1866 46.467L26.4486 41.9817C26.0465 40.7926 25.8196 39.4844 25.8196 38.0713H11.8196ZM16.5235 38.0478C8.76466 42.1858 3.7756 50.649 3.7756 60.0473H17.7756C17.7756 55.5397 20.1566 51.9769 23.1117 50.4008L16.5235 38.0478ZM3.7756 60.0473C3.7756 68.9428 8.23948 76.9698 15.2707 81.3216L22.6385 69.4171C19.8977 67.7208 17.7756 64.2939 17.7756 60.0473H3.7756ZM11.9984 74.5871C11.8916 75.5371 11.8196 76.5505 11.8196 77.6283H25.8196C25.8196 77.1762 25.8496 76.6956 25.9108 76.1515L11.9984 74.5871ZM11.8196 77.6283C11.8196 90.6053 21.5708 102.209 34.8996 102.209V88.2093C30.4544 88.2093 25.8196 84.0774 25.8196 77.6283H11.8196ZM34.8996 102.209C37.7784 102.209 40.5831 101.658 43.1921 100.581L37.8511 87.6397C36.9661 88.005 35.9788 88.2093 34.8996 88.2093V102.209ZM34.1274 96.959C37.7131 105.008 45.5173 110.999 54.9976 110.999V96.9993C51.7519 96.9993 48.5541 94.9391 46.9158 91.2617L34.1274 96.959ZM54.9976 110.999C64.4815 110.999 72.2875 105.009 75.8688 96.9544L63.0764 91.2663C61.4437 94.9381 58.2497 96.9993 54.9976 96.9993V110.999ZM66.8193 100.588C69.4282 101.657 72.2262 102.2 75.0996 102.2V88.2003C74.005 88.2003 73.013 87.996 72.1259 87.6327L66.8193 100.588ZM75.0996 102.2C88.4268 102.2 98.1796 90.5978 98.1796 77.6193H84.1796C84.1796 84.0688 79.5444 88.2003 75.0996 88.2003V102.2ZM98.1796 77.6193C98.1796 76.5408 98.1075 75.5163 97.992 74.541L84.0892 76.1876C84.1497 76.6984 84.1796 77.1679 84.1796 77.6193H98.1796ZM94.7259 81.3157C101.739 76.973 106.224 68.9524 106.224 60.0513H92.2236C92.2236 64.2843 90.0963 67.7157 87.3553 69.413L94.7259 81.3157ZM106.224 60.0513V60.0473H92.2236V60.0513H106.224ZM31.1026 60.6153C31.1026 60.1944 31.2198 59.842 31.3473 59.61C31.4651 59.3956 31.5607 59.3346 31.5205 59.3656C31.4175 59.4449 30.977 59.6923 30.2086 59.6923V73.6923C36.6218 73.6923 45.1026 69.4296 45.1026 60.6153H31.1026ZM30.2086 59.6923C29.4402 59.6923 28.9998 59.4449 28.8967 59.3656C28.8565 59.3346 28.9521 59.3956 29.0699 59.61C29.1974 59.842 29.3146 60.1944 29.3146 60.6153H15.3146C15.3146 69.4296 23.7954 73.6923 30.2086 73.6923V59.6923ZM29.3146 60.6153C29.3146 61.0363 29.1974 61.3887 29.0699 61.6206C28.9521 61.835 28.8565 61.896 28.8967 61.865C28.9998 61.7857 29.4402 61.5383 30.2086 61.5383V47.5383C23.7954 47.5383 15.3146 51.801 15.3146 60.6153H29.3146ZM30.2086 61.5383C30.977 61.5383 31.4175 61.7857 31.5205 61.865C31.5607 61.896 31.4651 61.835 31.3473 61.6206C31.2198 61.3887 31.1026 61.0363 31.1026 60.6153H45.1026C45.1026 51.801 36.6218 47.5383 30.2086 47.5383V61.5383ZM83.8976 60.6153C83.8976 60.1944 84.0148 59.842 84.1423 59.61C84.2601 59.3956 84.3557 59.3346 84.3155 59.3656C84.2125 59.4449 83.772 59.6923 83.0036 59.6923V73.6923C89.4168 73.6923 97.8976 69.4296 97.8976 60.6153H83.8976ZM83.0036 59.6923C82.2352 59.6923 81.7948 59.4449 81.6917 59.3656C81.6515 59.3346 81.7471 59.3956 81.8649 59.61C81.9924 59.842 82.1096 60.1944 82.1096 60.6153H68.1096C68.1096 69.4296 76.5904 73.6923 83.0036 73.6923V59.6923ZM82.1096 60.6153C82.1096 61.0363 81.9924 61.3887 81.8649 61.6206C81.7471 61.835 81.6515 61.896 81.6917 61.865C81.7948 61.7857 82.2352 61.5383 83.0036 61.5383V47.5383C76.5904 47.5383 68.1096 51.801 68.1096 60.6153H82.1096ZM83.0036 61.5383C83.772 61.5383 84.2125 61.7857 84.3155 61.865C84.3557 61.896 84.2601 61.835 84.1423 61.6206C84.0148 61.3887 83.8976 61.0363 83.8976 60.6153H97.8976C97.8976 51.801 89.4168 47.5383 83.0036 47.5383V61.5383ZM56.3096 84.1483C50.7487 84.1483 45.3415 81.6655 41.5188 77.2089L30.8924 86.3238C37.2977 93.7912 46.5465 98.1483 56.3096 98.1483V84.1483ZM41.5184 77.2085C41.6201 77.327 41.628 77.434 41.6262 77.468C41.6243 77.5021 41.6031 77.6265 41.4679 77.7528L31.9113 67.5219C26.6003 72.4828 26.1871 80.8391 30.8928 86.3242L41.5184 77.2085ZM41.469 77.7518C41.3179 77.893 41.0511 78.0043 40.7598 77.9874C40.4702 77.9707 40.2387 77.833 40.1248 77.7002L50.7504 68.5845C45.8984 62.9288 37.3951 62.3974 31.9102 67.5229L41.469 77.7518ZM40.1243 77.6996C44.1815 82.4298 50.0637 85.2183 56.3096 85.2183V71.2183C54.2695 71.2183 52.2277 70.3069 50.7509 68.585L40.1243 77.6996ZM56.3096 85.2183C62.5542 85.2183 68.4376 82.43 72.4949 77.6996L61.8683 68.585C60.3916 70.3067 58.349 71.2183 56.3096 71.2183V85.2183ZM72.4953 77.6992C72.3812 77.8322 72.1491 77.9703 71.8588 77.9871C71.5672 78.0039 71.3008 77.8925 71.1502 77.7518L80.709 67.5229C75.2255 62.3986 66.7212 62.9262 61.8679 68.5855L72.4953 77.6992ZM71.1523 77.7537C71.0168 77.6272 70.9952 77.5021 70.9934 77.4674C70.9916 77.4331 70.9996 77.3264 71.1008 77.2085L81.7264 86.3242C86.431 80.8404 86.0214 72.4832 80.7069 67.5209L71.1523 77.7537ZM71.1009 77.2084C67.2767 81.6658 61.8701 84.1483 56.3096 84.1483V98.1483C66.0731 98.1483 75.3205 93.7909 81.7263 86.3243L71.1009 77.2084ZM56.3096 78.4283C52.3056 78.4283 48.3871 76.6402 45.6018 73.3929L34.9754 82.5077C40.3421 88.7645 48.1016 92.4283 56.3096 92.4283V78.4283ZM45.6046 73.3962C47.757 75.9086 47.5968 79.7072 45.1171 82.0182L35.5721 71.7765C32.5044 74.6355 32.2942 79.378 34.9726 82.5044L45.6046 73.3962ZM45.1264 82.0095C42.4876 84.4778 38.3482 84.2067 36.0376 81.5094L46.6696 72.4012C43.833 69.09 38.7896 68.7669 35.5628 71.7852L45.1264 82.0095ZM36.0404 81.5127C41.1366 87.454 48.5083 90.9353 56.3096 90.9353V76.9353C52.7109 76.9353 49.1806 75.3286 46.6668 72.3979L36.0404 81.5127ZM56.3096 90.9353C64.1101 90.9353 71.4817 87.4539 76.5778 81.5127L65.9514 72.3979C63.4375 75.3288 59.9071 76.9353 56.3096 76.9353V90.9353ZM76.5806 81.5094C74.2759 84.1997 70.1368 84.4832 67.4922 82.009L77.057 71.7857C73.8224 68.7594 68.7793 69.0969 65.9486 72.4012L76.5806 81.5094ZM67.5021 82.0182C65.0224 79.7072 64.8622 75.9086 67.0146 73.3962L77.6466 82.5044C80.325 79.378 80.1148 74.6355 77.0471 71.7765L67.5021 82.0182ZM67.0169 73.3935C64.2324 76.6405 60.3134 78.4283 56.3096 78.4283V92.4283C64.5158 92.4283 72.2768 88.7661 77.6443 82.5072L67.0169 73.3935ZM59.6226 58.8633C59.6226 61.0543 57.9946 62.3153 56.6066 62.3153V76.3153C66.2826 76.3153 73.6226 68.2183 73.6226 58.8633H59.6226ZM56.6066 62.3153C55.2186 62.3153 53.5906 61.0544 53.5906 58.8633H39.5906C39.5906 68.2183 46.9306 76.3153 56.6066 76.3153V62.3153ZM53.5906 58.8633C53.5906 56.6714 55.2195 55.4103 56.6066 55.4103V41.4103C46.9297 41.4103 39.5906 49.5092 39.5906 58.8633H53.5906ZM56.6066 55.4103C57.9937 55.4103 59.6226 56.6714 59.6226 58.8633H73.6226C73.6226 49.5092 66.2835 41.4103 56.6066 41.4103V55.4103ZM36.9916 36.7943C36.9916 38.3561 36.588 39.435 36.3046 39.8957C36.1712 40.1125 36.1694 40.0253 36.4289 39.8469C36.7254 39.6431 37.3107 39.3673 38.1026 39.3673V53.3673C43.0674 53.3673 46.4509 50.1216 48.2289 47.2312C50.0769 44.2272 50.9916 40.5196 50.9916 36.7943H36.9916ZM38.1026 39.3673C38.8945 39.3673 39.4798 39.6431 39.7763 39.8469C40.0358 40.0253 40.034 40.1125 39.9006 39.8957C39.6172 39.435 39.2136 38.3561 39.2136 36.7943H25.2136C25.2136 40.5196 26.1283 44.2272 27.9763 47.2312C29.7544 50.1216 33.1378 53.3673 38.1026 53.3673V39.3673ZM39.2136 36.7943C39.2136 35.2326 39.6172 34.1537 39.9006 33.6929C40.034 33.4761 40.0358 33.5633 39.7763 33.7418C39.4798 33.9456 38.8945 34.2213 38.1026 34.2213V20.2213C33.1378 20.2213 29.7544 23.4671 27.9763 26.3575C26.1283 29.3614 25.2136 33.0691 25.2136 36.7943H39.2136ZM38.1026 34.2213C37.3107 34.2213 36.7254 33.9456 36.4289 33.7418C36.1694 33.5633 36.1712 33.4762 36.3046 33.6929C36.588 34.1537 36.9916 35.2326 36.9916 36.7943H50.9916C50.9916 33.0691 50.0769 29.3614 48.2289 26.3575C46.4509 23.4671 43.0674 20.2213 38.1026 20.2213V34.2213ZM71.4016 36.7943C71.4016 38.3561 70.998 39.435 70.7146 39.8957C70.5812 40.1125 70.5794 40.0253 70.8389 39.8469C71.1354 39.6431 71.7207 39.3673 72.5126 39.3673V53.3673C77.4774 53.3673 80.8609 50.1216 82.6389 47.2312C84.4869 44.2272 85.4016 40.5196 85.4016 36.7943H71.4016ZM72.5126 39.3673C73.3045 39.3673 73.8898 39.6431 74.1863 39.8469C74.4458 40.0253 74.444 40.1125 74.3106 39.8957C74.0272 39.435 73.6236 38.3561 73.6236 36.7943H59.6236C59.6236 40.5196 60.5383 44.2272 62.3863 47.2312C64.1643 50.1216 67.5478 53.3673 72.5126 53.3673V39.3673ZM73.6236 36.7943C73.6236 35.2326 74.0272 34.1537 74.3106 33.6929C74.444 33.4761 74.4458 33.5633 74.1863 33.7418C73.8898 33.9456 73.3045 34.2213 72.5126 34.2213V20.2213C67.5478 20.2213 64.1643 23.4671 62.3863 26.3575C60.5383 29.3614 59.6236 33.0691 59.6236 36.7943H73.6236ZM72.5126 34.2213C71.7207 34.2213 71.1354 33.9456 70.8389 33.7418C70.5794 33.5633 70.5812 33.4761 70.7146 33.6929C70.998 34.1537 71.4016 35.2326 71.4016 36.7943H85.4016C85.4016 33.0691 84.4869 29.3614 82.6389 26.3575C80.8609 23.4671 77.4774 20.2213 72.5126 20.2213V34.2213Z" fill="white" mask="url(#path-1-outside-1_803_229)"/>
</svg>
