<svg width="228" height="228" viewBox="0 0 228 228" fill="none" xmlns="http://www.w3.org/2000/svg">
<path d="M215.079 141.427C219.044 134.378 221 126.64 221 118.353C221 109.869 218.796 101.928 214.423 94.6639C211.125 89.1475 206.863 84.6325 201.682 81.18C202.365 77.9526 202.696 74.6016 202.696 71.1429C202.696 63.0809 200.798 55.5269 196.964 48.6094C193.161 41.7461 187.94 36.2206 181.349 32.151C174.695 28.0423 167.375 25.9732 159.536 25.9732C156.299 25.9732 153.15 26.3245 150.102 27.039C146.714 21.852 142.374 17.4943 137.11 14.0181C130.08 9.37563 122.326 7 114 7C105.674 7 97.9204 9.37563 90.8903 14.0181C85.6264 17.4943 81.2859 21.852 77.8978 27.039C74.8503 26.3245 71.7007 25.9732 68.4643 25.9732C60.6251 25.9732 53.2943 28.0419 46.6125 32.1401C39.9887 36.2027 34.7295 41.7205 30.8849 48.5796C27.0049 55.5018 25.0804 63.0664 25.0804 71.1429C25.0804 74.5483 25.469 77.9103 26.2373 81.2199C21.1261 84.6431 16.8994 89.1482 13.5843 94.6513C9.20647 101.918 7 109.864 7 118.353C7 126.64 8.95623 134.378 12.9213 141.427C16.071 147.027 20.142 151.714 25.1166 155.414C25.0927 155.903 25.0804 156.385 25.0804 156.857C25.0804 164.934 27.0049 172.498 30.8849 179.42C34.7295 186.279 39.9887 191.797 46.6125 195.86C53.2943 199.958 60.6251 202.027 68.4643 202.027C71.6808 202.027 74.8116 201.68 77.8417 200.974C81.2129 206.25 85.5338 210.653 90.7964 214.105C97.7794 218.686 105.532 221 113.888 221C122.274 221 130.056 218.632 137.071 213.971C142.308 210.491 146.646 206.133 150.063 200.952C153.123 201.672 156.286 202.027 159.536 202.027C167.375 202.027 174.695 199.958 181.349 195.849C187.94 191.779 193.161 186.254 196.964 179.391C200.798 172.473 202.696 164.919 202.696 156.857C202.696 156.417 202.693 155.984 202.686 155.561C207.75 151.838 211.887 147.101 215.079 141.427Z" fill="#45c273" stroke="white" stroke-width="14" stroke-linejoin="round"/>
<path d="M150 133.678C150 104.699 96.6509 106.591 96.6509 89.0947C96.6509 80.6261 104.742 76.49 114.126 76.49C129.907 76.49 132.717 86.6432 139.865 86.6432C144.927 86.6432 147.363 83.4515 147.363 79.8744C147.363 71.5607 134.777 65.2678 122.707 63.0883V55.0654C122.707 50.0605 118.663 46 113.662 46C108.657 46 104.61 50.0605 104.61 55.0654V63.3716C91.4495 66.3707 80.1302 75.5117 80.1302 90.4129C80.1302 118.248 133.472 117.122 133.472 136.673C133.472 143.446 126.151 150.218 114.126 150.218C96.0927 150.218 90.0841 137.995 82.7592 137.995C79.191 137.995 76 141.002 76 145.534C76 152.734 88.0511 161.399 104.621 163.82L104.61 163.877V172.931C104.61 177.939 108.664 182 113.666 182C118.663 182 122.714 177.939 122.714 172.931V163.877C122.714 163.771 122.662 163.688 122.654 163.593C137.564 160.806 150 151.072 150 133.678V133.678Z" fill="white"/>
</svg>
