<svg width="110" height="110" viewBox="0 0 110 110" fill="none" xmlns="http://www.w3.org/2000/svg">
<mask id="path-1-outside-1_902_191" maskUnits="userSpaceOnUse" x="0" y="0" width="110" height="110" fill="black">
<rect fill="white" width="110" height="110"/>
<path fill-rule="evenodd" clip-rule="evenodd" d="M49.504 9.32145C52.3956 6.22618 57.3033 6.22618 60.1949 9.32145L67.2916 16.9069C68.7375 18.4495 70.7789 19.2945 72.8916 19.2284L83.2669 18.872C87.5025 18.7295 90.9796 22.2015 90.832 26.4371L90.4858 36.8124C90.4095 38.9302 91.2596 40.9716 92.8022 42.4124L100.388 49.504C103.483 52.3956 103.483 57.3084 100.388 60.2L92.8022 67.2916C91.2596 68.7374 90.4095 70.7738 90.4858 72.8865L90.832 83.2669C90.9796 87.5025 87.5025 90.9745 83.2669 90.832L72.8916 90.4807C70.7789 90.4044 68.7375 91.2545 67.2967 92.7971L60.2051 100.383C57.3084 103.483 52.4007 103.483 49.504 100.383L42.4175 92.7971C40.9716 91.2545 38.9302 90.4094 36.8175 90.4807L26.4422 90.832C22.2065 90.9745 18.7345 87.5025 18.872 83.2669L19.2284 72.8916C19.2996 70.7738 18.4545 68.7374 16.9069 67.2916L9.32145 60.2C6.22618 57.3084 6.22618 52.3956 9.32145 49.504L16.9069 42.4175C18.4545 40.9716 19.2996 38.9302 19.2284 36.8175L18.8771 26.4371C18.7345 22.2015 22.2065 18.7295 26.4422 18.872L36.8124 19.2233C38.9251 19.2996 40.9665 18.4495 42.4124 16.9069L49.504 9.32145Z"/>
</mask>
<path fill-rule="evenodd" clip-rule="evenodd" d="M49.504 9.32145C52.3956 6.22618 57.3033 6.22618 60.1949 9.32145L67.2916 16.9069C68.7375 18.4495 70.7789 19.2945 72.8916 19.2284L83.2669 18.872C87.5025 18.7295 90.9796 22.2015 90.832 26.4371L90.4858 36.8124C90.4095 38.9302 91.2596 40.9716 92.8022 42.4124L100.388 49.504C103.483 52.3956 103.483 57.3084 100.388 60.2L92.8022 67.2916C91.2596 68.7374 90.4095 70.7738 90.4858 72.8865L90.832 83.2669C90.9796 87.5025 87.5025 90.9745 83.2669 90.832L72.8916 90.4807C70.7789 90.4044 68.7375 91.2545 67.2967 92.7971L60.2051 100.383C57.3084 103.483 52.4007 103.483 49.504 100.383L42.4175 92.7971C40.9716 91.2545 38.9302 90.4094 36.8175 90.4807L26.4422 90.832C22.2065 90.9745 18.7345 87.5025 18.872 83.2669L19.2284 72.8916C19.2996 70.7738 18.4545 68.7374 16.9069 67.2916L9.32145 60.2C6.22618 57.3084 6.22618 52.3956 9.32145 49.504L16.9069 42.4175C18.4545 40.9716 19.2996 38.9302 19.2284 36.8175L18.8771 26.4371C18.7345 22.2015 22.2065 18.7295 26.4422 18.872L36.8124 19.2233C38.9251 19.2996 40.9665 18.4495 42.4124 16.9069L49.504 9.32145Z" fill="white"/>
<path d="M60.1949 9.32145L55.0798 14.1001L55.0832 14.1038L60.1949 9.32145ZM49.504 9.32145L54.6174 14.102L54.6191 14.1001L49.504 9.32145ZM67.2916 16.9069L62.18 21.6892L62.1844 21.6939L67.2916 16.9069ZM72.8916 19.2284L73.1108 26.2249L73.1214 26.2246L73.1319 26.2242L72.8916 19.2284ZM83.2669 18.872L83.0315 11.876L83.0266 11.8761L83.2669 18.872ZM90.832 26.4371L83.8362 26.1932L83.8359 26.2037L90.832 26.4371ZM90.4858 36.8124L97.4813 37.0646L97.4816 37.0552L97.4819 37.0458L90.4858 36.8124ZM92.8022 42.4124L97.5827 37.299L97.5802 37.2967L92.8022 42.4124ZM100.388 49.504L95.6071 54.6174L95.609 54.6191L100.388 49.504ZM100.388 60.2L95.609 55.0848L95.6071 55.0866L100.388 60.2ZM92.8022 67.2916L88.0217 62.1782L88.0151 62.1844L92.8022 67.2916ZM90.4858 72.8865L97.4819 72.6532L97.4816 72.6435L97.4812 72.6337L90.4858 72.8865ZM90.832 83.2669L83.8359 83.5002L83.8362 83.5107L90.832 83.2669ZM83.2669 90.832L83.0301 97.828L83.0315 97.828L83.2669 90.832ZM72.8916 90.4807L72.6388 97.4762L72.6468 97.4764L72.6548 97.4767L72.8916 90.4807ZM67.2967 92.7971L72.4101 97.5776L72.4124 97.5751L67.2967 92.7971ZM60.2051 100.383L55.0917 95.602L55.0902 95.6036L60.2051 100.383ZM49.504 100.383L44.3889 105.161L44.3891 105.161L49.504 100.383ZM42.4175 92.7971L47.5326 88.0184L47.5247 88.01L42.4175 92.7971ZM36.8175 90.4807L36.5814 83.4847L36.5806 83.4847L36.8175 90.4807ZM26.4422 90.832L26.6776 97.828L26.679 97.828L26.4422 90.832ZM18.872 83.2669L11.8761 83.0266L11.8757 83.0399L18.872 83.2669ZM19.2284 72.8916L26.2242 73.1319L26.2244 73.1271L19.2284 72.8916ZM16.9069 67.2916L12.1264 72.405L12.1283 72.4068L16.9069 67.2916ZM9.32145 60.2L14.102 55.0866L14.1001 55.0848L9.32145 60.2ZM9.32145 49.504L14.1001 54.6191L14.1001 54.6191L9.32145 49.504ZM16.9069 42.4175L12.1283 37.3023L12.1282 37.3024L16.9069 42.4175ZM19.2284 36.8175L26.2244 36.5814L26.2244 36.5807L19.2284 36.8175ZM18.8771 26.4371L11.8811 26.6725L11.8811 26.6738L18.8771 26.4371ZM26.4422 18.872L26.6792 11.876L26.6776 11.876L26.4422 18.872ZM36.8124 19.2233L37.0652 12.2278L37.0573 12.2276L37.0493 12.2273L36.8124 19.2233ZM42.4124 16.9069L47.5197 21.6939L47.5258 21.6874L42.4124 16.9069ZM65.3101 4.54283C59.6514 -1.51428 50.0475 -1.51428 44.3888 4.54283L54.6191 14.1001C54.7438 13.9666 54.9551 13.9666 55.0798 14.1001L65.3101 4.54283ZM72.4033 12.1246L65.3066 4.53912L55.0832 14.1038L62.18 21.6892L72.4033 12.1246ZM72.6725 12.2318C72.5664 12.2351 72.4666 12.1921 72.3989 12.1199L62.1844 21.6939C65.0083 24.7068 68.9914 26.354 73.1108 26.2249L72.6725 12.2318ZM83.0266 11.8761L72.6513 12.2325L73.1319 26.2242L83.5072 25.8679L83.0266 11.8761ZM97.8278 26.6809C98.117 18.3819 91.308 11.5974 83.0315 11.876L83.5024 25.868C83.565 25.8659 83.6037 25.8762 83.6331 25.888C83.6683 25.9023 83.7078 25.9269 83.7446 25.9636C83.7813 26.0003 83.8048 26.0387 83.8179 26.0712C83.8287 26.0977 83.8383 26.1333 83.8362 26.1932L97.8278 26.6809ZM97.4819 37.0458L97.8281 26.6705L83.8359 26.2037L83.4897 36.5789L97.4819 37.0458ZM97.5802 37.2967C97.5109 37.2319 97.4784 37.145 97.4813 37.0646L83.4904 36.5601C83.3405 40.7153 85.0084 44.7113 88.0241 47.5281L97.5802 37.2967ZM105.168 44.3906L97.5827 37.299L88.0217 47.5258L95.6071 54.6174L105.168 44.3906ZM105.166 65.3151C111.223 59.6565 111.223 50.0475 105.166 44.3888L95.609 54.6191C95.6533 54.6605 95.6724 54.6936 95.6842 54.7214C95.6985 54.755 95.7091 54.7998 95.7091 54.852C95.7091 54.9042 95.6985 54.949 95.6842 54.9826C95.6724 55.0104 95.6533 55.0435 95.609 55.0848L105.166 65.3151ZM97.5827 72.405L105.168 65.3134L95.6071 55.0866L88.0217 62.1782L97.5827 72.405ZM97.4812 72.6337C97.4789 72.5685 97.504 72.4788 97.5892 72.3989L88.0151 62.1844C85.0153 64.9961 83.34 68.9791 83.4904 73.1394L97.4812 72.6337ZM97.8281 83.0336L97.4819 72.6532L83.4897 73.1199L83.8359 83.5002L97.8281 83.0336ZM83.0315 97.828C91.308 98.1066 98.117 91.3221 97.8278 83.0231L83.8362 83.5107C83.8383 83.5707 83.8287 83.6063 83.8179 83.6328C83.8048 83.6653 83.7813 83.7037 83.7446 83.7404C83.7078 83.7771 83.6683 83.8017 83.6331 83.816C83.6037 83.8278 83.565 83.8381 83.5024 83.836L83.0315 97.828ZM72.6548 97.4767L83.0301 97.828L83.5038 83.836L73.1285 83.4847L72.6548 97.4767ZM72.4124 97.5751C72.479 97.5039 72.5665 97.4735 72.6388 97.4762L73.1445 83.4853C68.9913 83.3352 64.9959 85.0052 62.181 88.019L72.4124 97.5751ZM65.3185 105.163L72.4101 97.5776L62.1833 88.0166L55.0917 95.602L65.3185 105.163ZM44.3891 105.161C50.0528 111.223 59.6563 111.223 65.32 105.161L55.0902 95.6036C54.9604 95.7425 54.7487 95.7426 54.6189 95.6036L44.3891 105.161ZM37.3023 97.5758L44.3889 105.161L54.6191 95.6039L47.5326 88.0184L37.3023 97.5758ZM37.0535 97.4767C37.1473 97.4736 37.2421 97.5115 37.3102 97.5841L47.5247 88.01C44.7012 84.9976 40.7131 83.3453 36.5814 83.4847L37.0535 97.4767ZM26.679 97.828L37.0543 97.4767L36.5806 83.4847L26.2053 83.836L26.679 97.828ZM11.8757 83.0399C11.6071 91.3162 18.3913 98.1069 26.6776 97.828L26.2067 83.836C26.0218 83.8422 25.862 83.6889 25.8683 83.4939L11.8757 83.0399ZM12.2325 72.6513L11.8761 83.0266L25.8679 83.5072L26.2242 73.1319L12.2325 72.6513ZM12.1283 72.4068C12.2005 72.4743 12.2355 72.5605 12.2323 72.6562L26.2244 73.1271C26.3637 68.9871 24.7086 65.0006 21.6855 62.1765L12.1283 72.4068ZM4.54095 65.3134L12.1264 72.405L21.6874 62.1782L14.102 55.0866L4.54095 65.3134ZM4.54283 44.3888C-1.51428 50.0475 -1.51428 59.6565 4.54283 65.3151L14.1001 55.0848C14.0558 55.0435 14.0366 55.0104 14.0249 54.9826C14.0106 54.949 14 54.9042 14 54.852C14 54.7998 14.0106 54.755 14.0249 54.7214C14.0366 54.6936 14.0558 54.6605 14.1001 54.6191L4.54283 44.3888ZM12.1282 37.3024L4.54278 44.3889L14.1001 54.6191L21.6856 47.5326L12.1282 37.3024ZM12.2323 37.0535C12.2355 37.1459 12.1989 37.2363 12.1283 37.3023L21.6855 47.5326C24.7102 44.707 26.3638 40.7145 26.2244 36.5814L12.2323 37.0535ZM11.8811 26.6738L12.2324 37.0542L26.2244 36.5807L25.8731 26.2003L11.8811 26.6738ZM26.6776 11.876C18.3931 11.5972 11.6022 18.388 11.8811 26.6725L25.8731 26.2016C25.8668 26.0149 26.02 25.8618 26.2067 25.868L26.6776 11.876ZM37.0493 12.2273L26.6792 11.876L26.2052 25.868L36.5754 26.2193L37.0493 12.2273ZM37.3051 12.1199C37.2285 12.2015 37.1352 12.2304 37.0652 12.2278L36.5595 26.2187C40.715 26.3689 44.7045 24.6974 47.5196 21.6939L37.3051 12.1199ZM44.3906 4.54095L37.299 12.1264L47.5258 21.6874L54.6174 14.102L44.3906 4.54095Z" fill="white" mask="url(#path-1-outside-1_902_191)"/>
<path fill-rule="evenodd" clip-rule="evenodd" d="M60.1949 9.32145C57.3033 6.22618 52.3956 6.22618 49.504 9.32145L42.4124 16.9069C40.9665 18.4495 38.9251 19.2996 36.8124 19.2233L26.4422 18.872C22.2065 18.7295 18.7345 22.2015 18.8771 26.4371L19.2284 36.8175C19.2996 38.9302 18.4545 40.9716 16.9069 42.4175L9.32145 49.504C6.22618 52.3956 6.22618 57.3084 9.32145 60.2L16.9069 67.2916C18.4545 68.7375 19.2996 70.7738 19.2284 72.8916L18.872 83.2669C18.7345 87.5025 22.2065 90.9745 26.4422 90.832L36.8175 90.4807C38.9302 90.4094 40.9716 91.2545 42.4175 92.7971L49.504 100.383C52.4007 103.483 57.3084 103.483 60.2051 100.383L67.2967 92.7971C68.7375 91.2545 70.7789 90.4044 72.8916 90.4807L83.2669 90.832C87.5025 90.9745 90.9796 87.5025 90.832 83.2669L90.4858 72.8865C90.4095 70.7738 91.2596 68.7375 92.8022 67.2916L100.388 60.2C103.483 57.3084 103.483 52.3956 100.388 49.504L92.8022 42.4124C91.2596 40.9716 90.4095 38.9302 90.4858 36.8124L90.832 26.4371C90.9796 22.2015 87.5025 18.7295 83.2669 18.872L72.8916 19.2284C70.7789 19.2945 68.7375 18.4495 67.2916 16.9069L60.1949 9.32145ZM30.5811 57.008L48.0378 74.4596L76.9695 42.8655L70.112 36.5171L47.712 60.928L37.1636 50.3796L30.5811 57.008Z" fill="#829AAB"/>
</svg>
