<svg width="174" height="172" viewBox="0 0 174 172" fill="none" xmlns="http://www.w3.org/2000/svg">
<path d="M87 28.0616C77.7087 18.0417 66.6126 12.4844 53.7422 12.4844C45.6048 12.4844 37.9598 14.8304 30.933 19.35C23.9958 23.8119 18.433 29.733 14.279 37.0104C10.0799 44.3671 7.94141 52.2782 7.94141 60.6367C7.94141 72.8172 11.1631 85.1821 17.3129 97.6608L17.3189 97.673C23.3921 109.936 30.5463 120.654 38.8189 129.76L38.8505 129.794C44.2469 135.655 49.7858 140.964 55.4703 145.711C61.142 150.447 66.5769 154.296 71.768 157.17C76.8275 159.971 81.9228 161.947 86.7048 162.034C86.7212 162.034 86.7375 162.035 86.7539 162.035C86.7799 162.035 86.806 162.035 86.832 162.035H87C87.0424 162.035 87.0848 162.035 87.1272 162.034C91.9038 161.947 97.0098 159.975 102.091 157.179C107.31 154.307 112.773 150.458 118.474 145.722C124.191 140.972 129.749 135.66 135.149 129.794L135.166 129.776C140.872 123.535 146.03 116.582 150.648 108.935C155.297 101.235 159.016 93.2535 161.789 84.9946C164.594 76.6404 166.059 68.5084 166.059 60.6367C166.059 52.2782 163.92 44.3671 159.721 37.0104C155.567 29.733 150.004 23.8119 143.067 19.35C136.04 14.8304 128.395 12.4844 120.258 12.4844C107.387 12.4844 96.2913 18.0417 87 28.0616Z" fill="#E0245E" stroke="white" stroke-width="14" stroke-linejoin="round"/>
</svg>
