<svg width="172" height="175" viewBox="0 0 172 175" fill="none" xmlns="http://www.w3.org/2000/svg">
<path d="M125.928 43.7767C125.819 43.6349 125.704 43.498 125.583 43.3664L95.739 10.9674C93.2888 8.12549 89.968 6.46667 86.0889 6.46667C82.186 6.46667 78.8538 8.13961 76.3274 10.8984L46.583 43.3793C44.0617 46.1326 42.7333 49.5177 42.7333 53.2589C42.7333 56.9344 43.9886 60.3055 46.4955 63.043C49.0163 65.7957 52.339 67.3792 56.1695 67.3792C60.0664 67.3792 63.3943 65.7114 65.9193 62.9602L72.6528 55.6822L72.6528 118.855L65.9309 111.59C65.9271 111.586 65.9232 111.582 65.9194 111.577C63.434 108.869 60.148 107.158 56.2569 107.158C52.3599 107.158 49.0697 108.874 46.583 111.59C44.1651 114.23 42.7333 117.487 42.7333 121.183C42.7333 124.791 44.1412 128.016 46.2495 130.761C46.3584 130.903 46.4736 131.04 46.5948 131.171L76.4389 163.57C78.889 166.412 82.2098 168.071 86.0889 168.071C89.9918 168.071 93.324 166.398 95.8503 163.639L125.595 131.158C128.116 128.405 129.444 125.02 129.444 121.279C129.444 117.603 128.189 114.232 125.682 111.495C123.161 108.742 119.839 107.158 116.008 107.158C112.112 107.158 108.784 108.826 106.259 111.577C106.255 111.581 106.251 111.586 106.247 111.59L99.525 118.855L99.525 55.6822L106.259 62.9604C108.744 65.6685 112.03 67.3792 115.921 67.3792C119.818 67.3792 123.108 65.663 125.595 62.9475C128.013 60.3072 129.444 57.0501 129.444 53.3545C129.444 49.7465 128.037 46.5217 125.928 43.7767Z" fill="#55ACEE" stroke="white" stroke-width="14" stroke-linejoin="round"/>
</svg>
