<svg width="94" height="94" viewBox="0 0 94 94" fill="none" xmlns="http://www.w3.org/2000/svg">
<path d="M91 47C91 40.8135 87.6509 35.5082 82.7188 32.2095C83.8949 26.3953 82.4856 20.2429 78.1213 15.8787C73.7596 11.5169 67.6117 10.1067 61.8005 11.2792C58.5141 6.33684 53.1727 3 47 3C40.8197 3 35.5118 6.34356 32.2366 11.2813C26.3999 10.1061 20.2461 11.5112 15.8787 15.8787C11.506 20.2513 10.1388 26.4071 11.3197 32.2095C6.38877 35.5027 3 40.8035 3 47C3 53.1965 6.38877 58.4973 11.3197 61.7905C10.1388 67.5929 11.506 73.7487 15.8787 78.1213C20.2527 82.4953 26.4071 83.8592 32.2028 82.7088C35.5011 87.6464 40.8094 91 47 91C53.1768 91 58.5213 87.6587 61.8071 82.7108C67.5999 83.8577 73.7498 82.4928 78.1213 78.1213C82.4856 73.7571 83.8949 67.6047 82.7188 61.7905C87.6509 58.4918 91 53.1865 91 47Z" fill="#FFCC4D" stroke="white" stroke-width="6"/>
<path d="M79 46C79 63.6729 64.6729 78 47 78C29.3271 78 15 63.6729 15 46C15 28.3271 29.3271 14 47 14C64.6729 14 79 28.3271 79 46Z" fill="#FFCC4D"/>
<path d="M63.4846 56.0069C63.1681 55.7207 62.6952 55.7029 62.3557 55.9554C62.2864 56.0069 55.3832 61.1109 46.889 61.1109C38.4161 61.1109 31.4899 56.0069 31.4224 55.9554C31.0828 55.7029 30.6099 55.7243 30.2935 56.0069C29.9788 56.2914 29.9077 56.7607 30.1264 57.1234C30.3557 57.5056 35.8455 66.4443 46.889 66.4443C57.9326 66.4443 63.4241 57.5056 63.6517 57.1234C63.8704 56.7589 63.801 56.2914 63.4846 56.0069Z" fill="#664500"/>
<path d="M46.8892 61.2729C46.6261 61.2729 46.3719 61.2533 46.1123 61.2444V69.2729H47.6661V61.2427C47.4065 61.2516 47.1523 61.2729 46.8892 61.2729Z" fill="#65471B"/>
<path d="M54.0003 60.2222C54.0288 60.2151 51.4225 60.8942 49.6519 61.0862C49.0012 61.1609 48.3416 61.2196 47.6661 61.2427V69.2729H50.4448C52.4003 69.2729 54.0003 67.6729 54.0003 65.7173V63.4738V60.2222Z" fill="white"/>
<path d="M39.7781 60.2222C39.7496 60.2151 42.3559 60.8942 44.1265 61.0862C44.7772 61.1609 45.4368 61.2196 46.1123 61.2427V69.2729H43.3336C41.3781 69.2729 39.7781 67.6729 39.7781 65.7173V63.4738V60.2222Z" fill="white"/>
<path d="M63.4846 56.0069C63.1681 55.7207 62.6952 55.7029 62.3557 55.9554C62.3041 55.9945 58.3397 58.9207 52.7361 60.3465C51.9486 60.5456 49.4224 61.1109 46.8944 61.1109C44.3628 61.1109 41.8295 60.5456 41.0419 60.3465C35.4384 58.9207 31.4757 55.9945 31.4224 55.9554C31.0846 55.7029 30.6099 55.7207 30.2935 56.0069C29.9788 56.2914 29.9077 56.7589 30.1281 57.1234C30.2988 57.4114 33.4775 62.5758 39.7779 65.0896V61.838C39.7495 61.8309 42.3557 62.51 44.1264 62.702C44.777 62.7767 45.4366 62.8354 46.1121 62.8585V62.8603C46.3717 62.8692 46.6259 62.8887 46.889 62.8887C47.1521 62.8887 47.4064 62.8692 47.6677 62.8603V62.8585C48.3415 62.8354 49.001 62.7767 49.6517 62.702C51.4224 62.51 54.0286 61.8309 54.0001 61.838V65.0896C60.3006 62.5758 63.4792 57.4114 63.6517 57.1234C63.8704 56.7589 63.801 56.2914 63.4846 56.0069Z" fill="#65471B"/>
<path d="M62.3323 38.9317C62.3323 41.9788 60.6647 44.45 58.606 44.45C56.5492 44.45 54.8816 41.9788 54.8816 38.9317C54.8816 35.8846 56.5492 33.4135 58.606 33.4135C60.6647 33.4135 62.3323 35.8846 62.3323 38.9317Z" fill="#65471B"/>
<path d="M69.9184 37.1545C69.7068 38.8505 69.1451 43.4034 67.6695 44.5038C66.4891 45.3838 63.4704 46.0007 61.2926 46.0007H61.2908C59.3246 46.0007 57.4455 45.4994 56.0037 44.6798C53.6517 43.3412 53.3015 39.5918 53.1646 37.6274C53.0882 36.5465 52.8517 34.3385 54.6384 33.2398C56.6562 31.9989 60.7931 31.9136 62.0251 31.9136C64.7148 31.9136 67.3442 32.406 69.2286 33.0478C70.4162 33.4532 70.0535 36.0754 69.9184 37.1545ZM40.9815 37.6043C40.8428 39.5687 40.4944 43.3412 38.1424 44.6798C36.6988 45.4994 34.8215 46.0007 32.8535 46.0007H32.8517C30.674 46.0007 27.6553 45.3838 26.4748 44.5038C24.9993 43.4034 24.4393 38.8736 24.226 37.1794C24.0908 36.1003 23.73 33.462 24.9157 33.0567C26.802 32.4149 29.4295 31.9136 32.1193 31.9136C33.3513 31.9136 37.4899 31.99 39.5059 33.2309C41.2926 34.3296 41.0562 36.5234 40.9815 37.6043ZM79.882 31.1154C79.578 30.8185 74.6295 31.6025 72.6579 30.598C68.5904 28.5252 58.3113 26.5234 51.6197 31.2647C50.9033 31.7732 47.9095 31.8585 47.0722 31.8212C46.2366 31.8585 43.2411 31.7732 42.5246 31.2647C35.8348 26.5234 25.5539 28.5252 21.4882 30.598C19.5148 31.6025 14.5664 30.8185 14.2642 31.1154C13.8233 31.5403 13.8251 33.2416 14.2642 33.6665C14.7015 34.0914 19.89 34.582 20.3255 35.8585C20.7646 37.1349 20.7682 44.6727 24.2615 47.2772C27.5291 49.7163 35.1557 50.4505 39.9895 47.702C44.2082 45.302 44.0588 40.2532 44.8322 37.2469C45.1077 36.1732 45.8846 35.6327 47.0722 35.6327C48.2615 35.6327 49.0366 36.1732 49.3122 37.2469C50.0855 40.2532 49.938 45.302 54.1548 47.702C58.9886 50.4505 66.6153 49.7163 69.8846 47.2772C73.3779 44.6727 73.3815 37.1349 73.8188 35.8585C74.2544 34.582 79.4428 34.0914 79.8802 33.6665C80.3211 33.2416 80.3211 31.5403 79.882 31.1154Z" fill="#292F33"/>
<path d="M31.8126 38.9317C31.8126 41.9788 33.4802 44.45 35.5388 44.45C37.5957 44.45 39.2633 41.9788 39.2633 38.9317C39.2633 35.8846 37.5957 33.4135 35.5388 33.4135C33.4802 33.4135 31.8126 35.8846 31.8126 38.9317Z" fill="#65471B"/>
</svg>
