<svg width="58" height="58" viewBox="0 0 58 58" fill="none" xmlns="http://www.w3.org/2000/svg">
<path fill-rule="evenodd" clip-rule="evenodd" d="M25.78 9.65548C26.9305 6.11486 31.9395 6.11482 33.09 9.65548L37.0865 21.9556L50.0196 21.9556C53.7425 21.9556 55.2903 26.7195 52.2785 28.9077L41.8154 36.5096L45.8119 48.8097C46.9624 52.3503 42.9099 55.2946 39.8981 53.1063L29.435 45.5045L18.9719 53.1063C15.96 55.2946 11.9077 52.3503 13.0581 48.8097L17.0546 36.5096L6.59153 28.9077C3.57967 26.7195 5.12759 21.9556 8.85042 21.9556L21.7835 21.9556L25.78 9.65548ZM33.4315 23.1431L29.435 10.8431L25.4385 23.1431C24.924 24.7266 23.4484 25.7986 21.7835 25.7986L8.85042 25.7986L19.3135 33.4005C20.6604 34.3791 21.2241 36.1137 20.7096 37.6972L16.713 49.9972L27.1761 42.3954C28.5231 41.4168 30.3469 41.4168 31.6939 42.3954L42.157 49.9973L38.1604 37.6972C37.6459 36.1137 38.2096 34.3791 39.5565 33.4005L50.0196 25.7986L37.0865 25.7986C35.4216 25.7986 33.946 24.7266 33.4315 23.1431Z" fill="black"/>
</svg>
