<svg width="200" height="200" viewBox="0 0 200 200" fill="none" xmlns="http://www.w3.org/2000/svg">
<path d="M77.6785 174.33C78.4225 174.33 80.2827 171.317 83.2588 165.29C85.863 160.007 88.9136 153.72 92.4106 146.429C95.61 139.658 97.433 135.975 97.8794 135.379C98.7722 133.966 101.972 130.692 107.478 125.558L111.719 121.652C112.016 121.354 112.277 120.424 112.5 118.862C112.723 117.299 112.835 115.513 112.835 113.504C112.835 111.495 112.705 109.598 112.444 107.812C112.184 106.027 111.83 104.687 111.384 103.795C110.863 102.604 109.021 100.446 105.859 97.3214C102.697 94.1964 99.4419 91.2388 96.0937 88.4486C92.7455 85.6584 90.6993 84.1889 89.9553 84.0401C88.8392 83.8169 84.6725 84.1145 77.4553 84.933L73.549 85.3794C70.9449 85.7514 68.9359 85.9374 67.5222 85.9374C65.2901 85.9374 63.1324 85.5468 61.049 84.7656C58.9657 83.9843 56.4545 82.645 53.5155 80.7477C50.5766 78.8504 46.4285 75.8928 41.0714 71.8749L35.7142 67.8571L39.6205 67.7455C44.8288 67.5967 47.9538 67.2619 48.9955 66.741C50.0371 66.2202 50.93 65.0111 51.674 63.1138C52.4181 61.2165 53.0133 59.7098 53.4597 58.5937C55.4687 53.7574 56.8824 50.93 57.7008 50.1116C58.5193 49.2931 59.4121 48.5863 60.3794 47.991C61.3466 47.3958 63.0208 46.5029 65.4017 45.3124L72.0981 41.8526C74.6279 40.5133 79.8734 38.0952 87.8347 34.5982C96.3169 30.8779 100.818 28.6458 101.339 27.9017C101.711 26.7857 101.897 25.2232 101.897 23.2142C101.897 20.8333 101.655 18.6755 101.172 16.741C100.688 14.8065 99.9999 13.8392 99.1071 13.8392H98.6606C86.235 13.9136 74.4977 16.5364 63.4486 21.7075C52.3995 26.8787 42.8757 34.0401 34.8772 43.1919C26.8786 52.3437 21.0565 62.7976 17.4106 74.5535C25.2231 77.0089 32.8868 79.7991 40.4017 82.9241C47.4702 85.9002 51.2648 87.8348 51.7856 88.7276C52.3065 89.5461 51.8228 91.5922 50.3347 94.866C49.9627 95.8333 49.6279 96.5773 49.3303 97.0982C48.9583 97.9166 48.6606 98.6607 48.4374 99.3303C48.2142 99.9999 48.1026 100.595 48.1026 101.116C48.1026 101.86 48.5118 103.46 49.3303 105.915L49.9999 108.147C50.1487 108.668 50.5766 109.989 51.2834 112.109C51.9902 114.23 52.7901 115.681 53.683 116.462C54.5758 117.243 56.3987 118.601 59.1517 120.536C62.7975 123.214 64.8809 124.926 65.4017 125.67C65.9225 126.562 66.927 133.37 68.4151 146.094C69.9032 158.966 70.8333 165.885 71.2053 166.853C71.6517 168.043 72.6562 169.568 74.2187 171.429C75.7812 173.363 76.9344 174.33 77.6785 174.33ZM181.027 122.321C182.366 122.321 183.259 121.801 183.705 120.759C185.491 115.848 186.384 108.929 186.384 99.9999C186.384 74.1071 176.339 52.3065 156.25 34.5982C154.911 33.4821 151.358 32.4032 145.591 31.3616C139.825 30.3199 134.598 29.7991 129.911 29.7991C125.893 29.7991 123.363 30.2083 122.321 31.0267C121.131 32.2172 120.294 33.1473 119.81 33.8169C119.327 34.4866 119.085 35.1934 119.085 35.9374C119.085 37.1279 119.792 38.5974 121.205 40.3459C122.619 42.0944 125.074 44.5312 128.571 47.6562C132.068 50.7812 134.431 53.0319 135.658 54.4084C136.886 55.7849 137.5 56.994 137.5 58.0357C137.5 58.8541 137.202 59.6726 136.607 60.491C136.012 61.3095 135.212 62.2581 134.207 63.337C133.203 64.4159 132.44 65.2529 131.92 65.8482C128.348 69.866 126.562 72.2842 126.562 73.1026C126.562 73.9211 128.088 75.7626 131.138 78.6272C134.189 81.4918 136.421 83.2961 137.835 84.0401C138.876 84.561 143.155 86.3467 150.67 89.3973C158.036 92.3735 162.128 94.1964 162.946 94.866C165.774 97.619 170.759 106.101 177.902 120.312C178.72 121.652 179.762 122.321 181.027 122.321Z" fill="white"/>
<path d="M100 0C118.006 0 134.673 4.50149 150 13.5045C165.327 22.5074 177.493 34.6726 186.496 50C195.499 65.3274 200 81.994 200 100C200 118.006 195.499 134.673 186.496 150C177.493 165.327 165.327 177.493 150 186.496C134.673 195.499 118.006 200 100 200C81.994 200 65.3274 195.499 50 186.496C34.6726 177.493 22.5074 165.327 13.5045 150C4.50149 134.673 0 118.006 0 100C0 72.4702 9.78423 48.9211 29.3527 29.3527C48.9211 9.78423 72.4702 0 100 0ZM77.6786 174.33C78.4226 174.33 80.2827 171.317 83.2589 165.29C85.8631 160.007 88.9137 153.72 92.4107 146.429C95.6101 139.658 97.433 135.975 97.8795 135.379C98.7723 133.966 101.972 130.692 107.478 125.558L111.719 121.652C112.016 121.354 112.277 120.424 112.5 118.862C112.723 117.299 112.835 115.513 112.835 113.504C112.835 111.496 112.705 109.598 112.444 107.812C112.184 106.027 111.83 104.688 111.384 103.795C110.863 102.604 109.022 100.446 105.859 97.3214C102.697 94.1964 99.442 91.2388 96.0938 88.4487C92.7455 85.6585 90.6994 84.189 89.9554 84.0402C88.8393 83.817 84.6726 84.1146 77.4554 84.933L73.5491 85.3795C70.9449 85.7515 68.936 85.9375 67.5223 85.9375C65.2902 85.9375 63.1324 85.5469 61.0491 84.7656C58.9658 83.9844 56.4546 82.6451 53.5156 80.7478C50.5766 78.8504 46.4286 75.8929 41.0714 71.875L35.7143 67.8571L39.6205 67.7455C44.8289 67.5967 47.9539 67.2619 48.9955 66.7411C50.0372 66.2202 50.9301 65.0112 51.6741 63.1138C52.4182 61.2165 53.0134 59.7098 53.4598 58.5938C55.4688 53.7574 56.8824 50.9301 57.7009 50.1116C58.5193 49.2932 59.4122 48.5863 60.3795 47.9911C61.3467 47.3958 63.0208 46.503 65.4018 45.3125L72.0982 41.8527C74.628 40.5134 79.8735 38.0952 87.8348 34.5982C96.317 30.878 100.818 28.6458 101.339 27.9018C101.711 26.7857 101.897 25.2232 101.897 23.2143C101.897 20.8333 101.656 18.6756 101.172 16.7411C100.688 14.8065 100 13.8393 99.1071 13.8393H98.6607C86.2351 13.9137 74.4978 16.5365 63.4487 21.7076C52.3996 26.8787 42.8757 34.0402 34.8772 43.192C26.8787 52.3438 21.0565 62.7976 17.4107 74.5536C25.2232 77.0089 32.8869 79.7991 40.4018 82.9241C47.4702 85.9003 51.2649 87.8348 51.7857 88.7277C52.3065 89.5461 51.8229 91.5923 50.3348 94.8661C49.9628 95.8333 49.628 96.5774 49.3304 97.0982C48.9583 97.9167 48.6607 98.6607 48.4375 99.3304C48.2143 100 48.1027 100.595 48.1027 101.116C48.1027 101.86 48.5119 103.46 49.3304 105.915L50 108.147C50.1488 108.668 50.5766 109.989 51.2835 112.109C51.9903 114.23 52.7902 115.681 53.683 116.462C54.5759 117.243 56.3988 118.601 59.1518 120.536C62.7976 123.214 64.881 124.926 65.4018 125.67C65.9226 126.562 66.9271 133.371 68.4152 146.094C69.9033 158.966 70.8333 165.885 71.2054 166.853C71.6518 168.043 72.6562 169.568 74.2188 171.429C75.7812 173.363 76.9345 174.33 77.6786 174.33ZM181.027 122.321C182.366 122.321 183.259 121.801 183.705 120.759C185.491 115.848 186.384 108.929 186.384 100C186.384 74.1071 176.339 52.3065 156.25 34.5982C154.911 33.4821 151.358 32.4033 145.592 31.3616C139.825 30.3199 134.598 29.7991 129.911 29.7991C125.893 29.7991 123.363 30.2083 122.321 31.0268C121.131 32.2173 120.294 33.1473 119.81 33.817C119.327 34.4866 119.085 35.1935 119.085 35.9375C119.085 37.128 119.792 38.5975 121.205 40.346C122.619 42.0945 125.074 44.5312 128.571 47.6562C132.068 50.7812 134.431 53.032 135.658 54.4085C136.886 55.785 137.5 56.994 137.5 58.0357C137.5 58.8542 137.202 59.6726 136.607 60.4911C136.012 61.3095 135.212 62.2582 134.208 63.3371C133.203 64.4159 132.44 65.253 131.92 65.8482C128.348 69.8661 126.562 72.2842 126.562 73.1027C126.562 73.9211 128.088 75.7626 131.138 78.6272C134.189 81.4918 136.421 83.2961 137.835 84.0402C138.876 84.561 143.155 86.3467 150.67 89.3973C158.036 92.3735 162.128 94.1964 162.946 94.8661C165.774 97.619 170.759 106.101 177.902 120.312C178.72 121.652 179.762 122.321 181.027 122.321Z" fill="#55ACEE"/>
</svg>
