<svg width="228" height="228" viewBox="0 0 228 228" fill="none" xmlns="http://www.w3.org/2000/svg">
<path d="M167.545 21.4687C151.129 11.8258 133.236 7 114 7C84.6028 7 59.2764 17.5295 38.4029 38.4029C17.5295 59.2764 7 84.6028 7 114C7 133.236 11.8258 151.129 21.4687 167.545C31.076 183.902 44.0985 196.924 60.4547 206.531C76.8714 216.174 94.7645 221 114 221C133.236 221 151.129 216.174 167.545 206.531C183.902 196.924 196.924 183.902 206.531 167.545C216.174 151.129 221 133.236 221 114C221 94.7645 216.174 76.8714 206.531 60.4547C196.924 44.0985 183.902 31.076 167.545 21.4687Z" fill="#55ACEE" stroke="white" stroke-width="14"/>
<path d="M91.6786 188.33C92.4226 188.33 94.2827 185.317 97.2589 179.29C99.8631 174.007 102.914 167.72 106.411 160.429C109.61 153.658 111.433 149.975 111.879 149.379C112.772 147.966 115.972 144.692 121.478 139.558L125.719 135.652C126.016 135.354 126.277 134.424 126.5 132.862C126.723 131.299 126.835 129.513 126.835 127.504C126.835 125.496 126.705 123.598 126.444 121.812C126.184 120.027 125.83 118.687 125.384 117.795C124.863 116.604 123.022 114.446 119.859 111.321C116.697 108.196 113.442 105.239 110.094 102.449C106.746 99.6585 104.699 98.189 103.955 98.0402C102.839 97.8169 98.6726 98.1146 91.4554 98.933L87.5491 99.3794C84.945 99.7515 82.936 99.9375 81.5223 99.9375C79.2902 99.9375 77.1325 99.5469 75.0491 98.7656C72.9658 97.9844 70.4546 96.6451 67.5156 94.7477C64.5767 92.8504 60.4286 89.8928 55.0714 85.875L49.7143 81.8571L53.6206 81.7455C58.8289 81.5967 61.9539 81.2619 62.9956 80.7411C64.0372 80.2202 64.9301 79.0111 65.6741 77.1138C66.4182 75.2165 67.0134 73.7098 67.4598 72.5937C69.4688 67.7574 70.8825 64.93 71.7009 64.1116C72.5194 63.2931 73.4122 62.5863 74.3795 61.9911C75.3467 61.3958 77.0208 60.503 79.4018 59.3125L86.0982 55.8527C88.628 54.5134 93.8735 52.0952 101.835 48.5982C110.317 44.878 114.818 42.6458 115.339 41.9018C115.711 40.7857 115.897 39.2232 115.897 37.2143C115.897 34.8333 115.656 32.6756 115.172 30.741C114.688 28.8065 114 27.8393 113.107 27.8393H112.661C100.235 27.9137 88.4978 30.5364 77.4487 35.7076C66.3996 40.8787 56.8758 48.0402 48.8773 57.1919C40.8787 66.3437 35.0566 76.7976 31.4107 88.5536C39.2232 91.0089 46.8869 93.7991 54.4018 96.9241C61.4703 99.9003 65.2649 101.835 65.7857 102.728C66.3066 103.546 65.8229 105.592 64.3348 108.866C63.9628 109.833 63.628 110.577 63.3304 111.098C62.9583 111.917 62.6607 112.661 62.4375 113.33C62.2143 114 62.1027 114.595 62.1027 115.116C62.1027 115.86 62.5119 117.46 63.3304 119.915L64 122.147C64.1488 122.668 64.5767 123.989 65.2835 126.109C65.9903 128.23 66.7902 129.681 67.683 130.462C68.5759 131.243 70.3988 132.601 73.1518 134.536C76.7976 137.214 78.881 138.926 79.4018 139.67C79.9226 140.562 80.9271 147.371 82.4152 160.094C83.9033 172.966 84.8333 179.885 85.2054 180.853C85.6518 182.043 86.6563 183.568 88.2188 185.429C89.7813 187.363 90.9345 188.33 91.6786 188.33ZM195.027 136.321C196.366 136.321 197.259 135.801 197.705 134.759C199.491 129.848 200.384 122.929 200.384 114C200.384 88.1071 190.339 66.3065 170.25 48.5982C168.911 47.4821 165.358 46.4033 159.592 45.3616C153.825 44.3199 148.598 43.7991 143.911 43.7991C139.893 43.7991 137.363 44.2083 136.321 45.0268C135.131 46.2172 134.294 47.1473 133.81 47.8169C133.327 48.4866 133.085 49.1934 133.085 49.9375C133.085 51.128 133.792 52.5974 135.205 54.346C136.619 56.0945 139.074 58.5312 142.571 61.6562C146.068 64.7812 148.431 67.032 149.658 68.4085C150.886 69.7849 151.5 70.994 151.5 72.0357C151.5 72.8541 151.202 73.6726 150.607 74.4911C150.012 75.3095 149.212 76.2582 148.208 77.337C147.203 78.4159 146.44 79.253 145.92 79.8482C142.348 83.8661 140.562 86.2842 140.562 87.1027C140.562 87.9211 142.088 89.7626 145.138 92.6272C148.189 95.4918 150.421 97.2961 151.835 98.0402C152.876 98.561 157.155 100.347 164.67 103.397C172.036 106.373 176.128 108.196 176.946 108.866C179.774 111.619 184.759 120.101 191.902 134.312C192.72 135.652 193.762 136.321 195.027 136.321Z" fill="white"/>
</svg>
