<svg width="228" height="228" viewBox="0 0 228 228" fill="none" xmlns="http://www.w3.org/2000/svg">
<path d="M91.6786 188.33C92.4226 188.33 94.2827 185.317 97.2589 179.29C99.8631 174.007 102.914 167.72 106.411 160.429C109.61 153.658 111.433 149.975 111.879 149.379C112.772 147.966 115.972 144.692 121.478 139.558L125.719 135.652C126.016 135.354 126.277 134.424 126.5 132.862C126.723 131.299 126.835 129.513 126.835 127.504C126.835 125.496 126.705 123.598 126.444 121.812C126.184 120.027 125.83 118.687 125.384 117.795C124.863 116.604 123.022 114.446 119.859 111.321C116.697 108.196 113.442 105.239 110.094 102.449C106.746 99.6585 104.699 98.189 103.955 98.0402C102.839 97.8169 98.6726 98.1146 91.4554 98.933L87.5491 99.3794C84.945 99.7515 82.936 99.9375 81.5223 99.9375C79.2902 99.9375 77.1325 99.5469 75.0491 98.7656C72.9658 97.9844 70.4546 96.6451 67.5156 94.7477C64.5767 92.8504 60.4286 89.8928 55.0714 85.875L49.7143 81.8571L53.6206 81.7455C58.8289 81.5967 61.9539 81.2619 62.9956 80.7411C64.0372 80.2202 64.9301 79.0111 65.6741 77.1138C66.4182 75.2165 67.0134 73.7098 67.4598 72.5937C69.4688 67.7574 70.8825 64.93 71.7009 64.1116C72.5194 63.2931 73.4122 62.5863 74.3795 61.9911C75.3467 61.3958 77.0208 60.503 79.4018 59.3125L86.0982 55.8527C88.628 54.5134 93.8735 52.0952 101.835 48.5982C110.317 44.878 114.818 42.6458 115.339 41.9018C115.711 40.7857 115.897 39.2232 115.897 37.2143C115.897 34.8333 115.656 32.6756 115.172 30.741C114.688 28.8065 114 27.8393 113.107 27.8393H112.661C100.235 27.9137 88.4978 30.5364 77.4487 35.7076C66.3996 40.8787 56.8758 48.0402 48.8773 57.1919C40.8787 66.3437 35.0566 76.7976 31.4107 88.5536C39.2232 91.0089 46.8869 93.7991 54.4018 96.9241C61.4703 99.9003 65.2649 101.835 65.7857 102.728C66.3066 103.546 65.8229 105.592 64.3348 108.866C63.9628 109.833 63.628 110.577 63.3304 111.098C62.9583 111.917 62.6607 112.661 62.4375 113.33C62.2143 114 62.1027 114.595 62.1027 115.116C62.1027 115.86 62.5119 117.46 63.3304 119.915L64 122.147C64.1488 122.668 64.5767 123.989 65.2835 126.109C65.9903 128.23 66.7902 129.681 67.683 130.462C68.5759 131.243 70.3988 132.601 73.1518 134.536C76.7976 137.214 78.881 138.926 79.4018 139.67C79.9226 140.562 80.9271 147.371 82.4152 160.094C83.9033 172.966 84.8333 179.885 85.2054 180.853C85.6518 182.043 86.6563 183.568 88.2188 185.429C89.7813 187.363 90.9345 188.33 91.6786 188.33ZM195.027 136.321C196.366 136.321 197.259 135.801 197.705 134.759C199.491 129.848 200.384 122.929 200.384 114C200.384 88.1071 190.339 66.3065 170.25 48.5982C168.911 47.4821 165.358 46.4033 159.592 45.3616C153.825 44.3199 148.598 43.7991 143.911 43.7991C139.893 43.7991 137.363 44.2083 136.321 45.0268C135.131 46.2172 134.294 47.1473 133.81 47.8169C133.327 48.4866 133.085 49.1934 133.085 49.9375C133.085 51.128 133.792 52.5974 135.205 54.346C136.619 56.0945 139.074 58.5312 142.571 61.6562C146.068 64.7812 148.431 67.032 149.658 68.4085C150.886 69.7849 151.5 70.994 151.5 72.0357C151.5 72.8541 151.202 73.6726 150.607 74.4911C150.012 75.3095 149.212 76.2582 148.208 77.337C147.203 78.4159 146.44 79.253 145.92 79.8482C142.348 83.8661 140.562 86.2842 140.562 87.1027C140.562 87.9211 142.088 89.7626 145.138 92.6272C148.189 95.4918 150.421 97.2961 151.835 98.0402C152.876 98.561 157.155 100.347 164.67 103.397C172.036 106.373 176.128 108.196 176.946 108.866C179.774 111.619 184.759 120.101 191.902 134.312C192.72 135.652 193.762 136.321 195.027 136.321Z" fill="white"/>
<path d="M72.8397 105.412C72.7784 105.797 72.7036 106.158 72.6259 106.486C72.2453 108.096 71.5757 109.834 70.7922 111.575C70.4388 112.481 70.0437 113.396 69.6004 114.223C69.4364 114.594 69.3061 114.915 69.204 115.189C69.3527 115.762 69.5996 116.587 69.9711 117.702L70.0047 117.802L70.0351 117.904L70.7048 120.136L70.718 120.18L70.7307 120.224C70.828 120.565 71.1984 121.718 71.9243 123.896C72.1846 124.677 72.4028 125.152 72.5408 125.403C73.2481 125.983 74.7217 127.083 77.1764 128.808L77.2368 128.851L77.2963 128.895C79.1629 130.266 80.7096 131.448 81.8918 132.419C82.8094 133.173 84.2353 134.368 85.1364 135.655L85.3024 135.893L85.4482 136.143C86.0152 137.114 86.2834 138.108 86.3711 138.432L86.3768 138.453C86.5159 138.968 86.6392 139.53 86.7497 140.088C86.9731 141.216 87.2134 142.679 87.4708 144.424C87.9885 147.932 88.6212 152.898 89.3678 159.281L89.3689 159.29C90.1114 165.713 90.7101 170.61 91.1664 174.005C91.235 174.515 91.2998 174.988 91.3609 175.422C93.8642 170.335 96.7736 164.335 100.09 157.42C101.692 154.03 102.966 151.378 103.904 149.483C104.372 148.538 104.774 147.743 105.103 147.125L105.11 147.112C105.303 146.747 105.657 146.08 106.064 145.482C106.973 144.096 108.453 142.495 109.942 140.971C111.65 139.224 113.915 137.039 116.704 134.438L116.72 134.424L116.735 134.409L119.582 131.787C119.741 130.641 119.835 129.224 119.835 127.504C119.835 125.796 119.724 124.239 119.517 122.823C119.415 122.118 119.308 121.606 119.216 121.255C119.155 121.027 119.113 120.912 119.102 120.884L119.07 120.82C119.058 120.802 119.044 120.781 119.026 120.756C118.891 120.565 118.657 120.261 118.288 119.828C117.546 118.959 116.448 117.792 114.939 116.3C111.915 113.312 108.806 110.487 105.612 107.826C104.033 106.51 102.853 105.582 102.032 104.988C101.621 105.005 101.111 105.034 100.492 105.078C98.5519 105.217 95.8185 105.483 92.2502 105.888L72.8397 105.412ZM72.8397 105.412C75.6354 106.428 78.5419 106.938 81.5223 106.938C83.4138 106.938 85.7764 106.701 88.4402 106.323L92.2441 105.888L72.8397 105.412ZM40.5659 83.7458L41.6788 84.5805C41.2547 84.4329 40.8302 84.2862 40.4052 84.1406C40.4585 84.0088 40.512 83.8772 40.5659 83.7458ZM49.5144 74.86L44.7994 74.9947C47.4376 70.3079 50.5531 65.9116 54.1479 61.7985C61.5048 53.3809 70.2432 46.8085 80.4159 42.0476C89.3717 37.8561 98.8149 35.4899 108.797 34.9549C108.862 35.6492 108.897 36.4011 108.897 37.2143C108.897 37.3654 108.896 37.5097 108.893 37.6473C108.757 37.7161 108.614 37.7878 108.463 37.8626C106.36 38.9053 103.232 40.3416 99.0232 42.1877L99.0197 42.1892C91.1302 45.6547 85.6594 48.1675 82.8554 49.649L76.2294 53.0725C73.8617 54.2569 71.9581 55.2619 70.7108 56.0295C69.2696 56.9163 67.9483 57.9647 66.7511 59.1619C65.4242 60.4888 64.4181 62.4109 63.7658 63.7155C62.9543 65.3385 62.0276 67.4234 60.9953 69.9085L60.9776 69.9511L60.9605 69.994C60.5172 71.1023 59.9344 72.5771 59.2143 74.4129C59.185 74.4162 59.1551 74.4194 59.1248 74.4226C57.8225 74.5622 55.944 74.6763 53.4206 74.7484L49.5144 74.86ZM108.281 32.0957C108.277 32.0843 108.274 32.0783 108.274 32.0782C108.275 32.078 108.277 32.0837 108.281 32.0957ZM60.5483 74.209C60.5486 74.2093 60.5338 74.2136 60.5021 74.221C60.5319 74.2124 60.548 74.2086 60.5483 74.209ZM94.7539 182.242C94.7529 182.241 94.7517 182.24 94.7502 182.238C94.7594 182.246 94.7606 182.247 94.7539 182.242ZM72.625 125.544C72.625 125.544 72.622 125.54 72.6161 125.531C72.6222 125.539 72.6251 125.544 72.625 125.544ZM151.152 84.4988L151.17 84.4783L151.188 84.4577C151.637 83.9445 152.341 83.1697 153.331 82.107C154.449 80.9057 155.451 79.7321 156.268 78.6083C157.525 76.8806 158.5 74.653 158.5 72.0357C158.5 68.3686 156.456 65.5133 154.883 63.7492C153.359 62.0409 150.72 59.5506 147.236 56.4367C144.515 54.0055 142.635 52.17 141.452 50.8728C142.108 50.8274 142.922 50.7991 143.911 50.7991C148.093 50.7991 152.894 51.2651 158.347 52.2501C161.097 52.7469 163.133 53.2207 164.547 53.65C165.251 53.8638 165.704 54.0378 165.965 54.1548C165.966 54.1551 165.967 54.1555 165.967 54.1558C184.375 70.5282 193.384 90.3418 193.384 114C193.384 116.742 193.295 119.217 193.128 121.439C191.573 118.529 190.143 115.962 188.841 113.746C186.364 109.531 183.996 105.96 181.83 103.851L181.613 103.64L181.379 103.448C180.512 102.739 179.458 102.195 178.887 101.906C178.124 101.518 177.185 101.08 176.112 100.602C173.956 99.6421 171.006 98.4077 167.298 96.9095C163.551 95.3883 160.628 94.1898 158.521 93.3102C157.466 92.8698 156.631 92.516 156.007 92.2456C155.696 92.1104 155.449 92.0015 155.262 91.9167C155.17 91.8753 155.099 91.8424 155.045 91.8173C155.025 91.8056 155.001 91.7906 154.97 91.7716C154.887 91.7199 154.775 91.6463 154.631 91.546C154.341 91.3429 153.967 91.0614 153.501 90.685C152.565 89.9285 151.381 88.8865 149.93 87.5244C149.655 87.2658 149.399 87.0221 149.162 86.793C149.72 86.1288 150.381 85.3658 151.152 84.4988ZM166.128 54.234C166.128 54.2339 166.123 54.2313 166.114 54.226C166.124 54.2313 166.128 54.234 166.128 54.234ZM167.545 21.4687C151.129 11.8258 133.236 7 114 7C84.6028 7 59.2764 17.5295 38.4029 38.4029C17.5295 59.2764 7 84.6028 7 114C7 133.236 11.8258 151.129 21.4687 167.545C31.076 183.902 44.0985 196.924 60.4547 206.531C76.8715 216.174 94.7645 221 114 221C133.236 221 151.129 216.174 167.545 206.531C183.902 196.924 196.924 183.902 206.531 167.545C216.174 151.129 221 133.236 221 114C221 94.7645 216.174 76.8715 206.531 60.4547C196.924 44.0985 183.902 31.076 167.545 21.4687Z" fill="#55ACEE" stroke="white" stroke-width="14"/>
</svg>
