<svg width="85" height="76" viewBox="0 0 85 76" fill="none" xmlns="http://www.w3.org/2000/svg">
<mask id="path-1-outside-1_804_247" maskUnits="userSpaceOnUse" x="0.166626" y="0.75" width="85" height="75" fill="black">
<rect fill="white" x="0.166626" y="0.75" width="85" height="75"/>
<path d="M15.0762 16.0795H65.4638V60.4205H15.0762V16.0795Z"/>
<path d="M57.5277 5.75H5.16663V70.75H59.3333C70.3039 70.75 79.1944 61.8667 79.1944 50.8889C79.1944 45.8333 77.3022 41.2111 74.193 37.7083C73.9041 37.3833 73.8716 36.9139 74.11 36.5528C76.1827 33.4111 77.3889 29.6556 77.3889 25.6111C77.3889 14.6333 68.4983 5.75 57.5277 5.75ZM54.6533 27.3806C56.3036 27.2 57.8744 26.7667 59.3333 26.1167C58.2427 27.7417 56.8633 29.15 55.2708 30.2694C55.2852 30.6306 55.2925 30.9556 55.2925 31.3167C55.2925 41.9333 47.0989 54.1389 32.1055 54.1389C27.505 54.1389 23.2222 52.8028 19.6147 50.5278C20.2538 50.6 20.9038 50.6361 21.5611 50.6361C25.378 50.6361 28.8916 49.3722 31.683 47.2056C28.1152 47.1333 25.1072 44.8222 24.0672 41.6444C24.5655 41.7528 25.0783 41.7889 25.6019 41.7889C26.3458 41.7889 27.0644 41.6806 27.7505 41.5C24.0202 40.7778 21.2108 37.5278 21.2108 33.6278V33.5194C22.3122 34.1333 23.5652 34.4944 24.905 34.5306C22.7166 33.0861 21.2794 30.6306 21.2794 27.85C21.2794 26.4056 21.6802 25.0333 22.3808 23.8417C26.4 28.6806 32.4016 31.8583 39.1797 32.2194C39.0425 31.6056 38.9702 31.0278 38.9702 30.3778C38.9702 25.9361 42.6175 22.3611 47.1169 22.3611C49.4605 22.3611 51.5766 23.3361 53.0644 24.8889C54.9205 24.5278 56.6647 23.8778 58.2391 22.9389C57.6325 24.8167 56.3397 26.4056 54.6569 27.3806H54.6533Z"/>
</mask>
<path d="M15.0762 16.0795H65.4638V60.4205H15.0762V16.0795Z" fill="white"/>
<path d="M57.5277 5.75H5.16663V70.75H59.3333C70.3039 70.75 79.1944 61.8667 79.1944 50.8889C79.1944 45.8333 77.3022 41.2111 74.193 37.7083C73.9041 37.3833 73.8716 36.9139 74.11 36.5528C76.1827 33.4111 77.3889 29.6556 77.3889 25.6111C77.3889 14.6333 68.4983 5.75 57.5277 5.75ZM54.6533 27.3806C56.3036 27.2 57.8744 26.7667 59.3333 26.1167C58.2427 27.7417 56.8633 29.15 55.2708 30.2694C55.2852 30.6306 55.2925 30.9556 55.2925 31.3167C55.2925 41.9333 47.0989 54.1389 32.1055 54.1389C27.505 54.1389 23.2222 52.8028 19.6147 50.5278C20.2538 50.6 20.9038 50.6361 21.5611 50.6361C25.378 50.6361 28.8916 49.3722 31.683 47.2056C28.1152 47.1333 25.1072 44.8222 24.0672 41.6444C24.5655 41.7528 25.0783 41.7889 25.6019 41.7889C26.3458 41.7889 27.0644 41.6806 27.7505 41.5C24.0202 40.7778 21.2108 37.5278 21.2108 33.6278V33.5194C22.3122 34.1333 23.5652 34.4944 24.905 34.5306C22.7166 33.0861 21.2794 30.6306 21.2794 27.85C21.2794 26.4056 21.6802 25.0333 22.3808 23.8417C26.4 28.6806 32.4016 31.8583 39.1797 32.2194C39.0425 31.6056 38.9702 31.0278 38.9702 30.3778C38.9702 25.9361 42.6175 22.3611 47.1169 22.3611C49.4605 22.3611 51.5766 23.3361 53.0644 24.8889C54.9205 24.5278 56.6647 23.8778 58.2391 22.9389C57.6325 24.8167 56.3397 26.4056 54.6569 27.3806H54.6533Z" fill="#1D9BF0"/>
<path d="M15.0762 16.0795V11.0795H10.0762V16.0795H15.0762ZM65.4638 16.0795H70.4638V11.0795H65.4638V16.0795ZM65.4638 60.4205V65.4205H70.4638V60.4205H65.4638ZM15.0762 60.4205H10.0762V65.4205H15.0762V60.4205ZM5.16663 5.75V0.75H0.166626V5.75H5.16663ZM5.16663 70.75H0.166626V75.75H5.16663V70.75ZM74.193 37.7083L77.9324 34.3891L77.9301 34.3865L74.193 37.7083ZM74.11 36.5528L78.283 39.307L78.2834 39.3063L74.11 36.5528ZM54.6533 27.3806L54.1095 22.4102L54.6533 32.3806V27.3806ZM59.3333 26.1167L63.485 28.9029L73.164 14.4807L57.2984 21.5495L59.3333 26.1167ZM55.2708 30.2694L52.3954 26.179L50.1659 27.7462L50.2748 30.4693L55.2708 30.2694ZM19.6147 50.5278L20.1761 45.5594L16.9476 54.757L19.6147 50.5278ZM31.683 47.2056L34.7488 51.1553L45.9094 42.4925L31.7842 42.2066L31.683 47.2056ZM24.0672 41.6444L25.1293 36.7586L16.6004 34.9044L19.3152 43.1996L24.0672 41.6444ZM27.7505 41.5L29.023 46.3354L28.7009 36.5912L27.7505 41.5ZM21.2108 33.5194L23.6451 29.152L16.2108 25.0083V33.5194H21.2108ZM24.905 34.5306L24.7702 39.5287L42.2681 40.0004L27.6594 30.3576L24.905 34.5306ZM22.3808 23.8417L26.2271 20.647L21.6784 15.1705L18.0705 21.3077L22.3808 23.8417ZM39.1797 32.2194L38.9137 37.2124L45.4975 37.5631L44.0593 31.1287L39.1797 32.2194ZM53.0644 24.8889L49.4541 28.3481L51.3414 30.3178L54.0193 29.7969L53.0644 24.8889ZM58.2391 22.9389L62.997 24.476L67.0771 11.847L55.6782 18.6445L58.2391 22.9389ZM54.6569 27.3806V32.3806H56.0008L57.1636 31.7068L54.6569 27.3806ZM15.0762 21.0795H65.4638V11.0795H15.0762V21.0795ZM60.4638 16.0795V60.4205H70.4638V16.0795H60.4638ZM65.4638 55.4205H15.0762V65.4205H65.4638V55.4205ZM20.0762 60.4205V16.0795H10.0762V60.4205H20.0762ZM57.5277 0.75H5.16663V10.75H57.5277V0.75ZM0.166626 5.75V70.75H10.1666V5.75H0.166626ZM5.16663 75.75H59.3333V65.75H5.16663V75.75ZM59.3333 75.75C73.0641 75.75 84.1944 64.6293 84.1944 50.8889H74.1944C74.1944 59.1041 67.5436 65.75 59.3333 65.75V75.75ZM84.1944 50.8889C84.1944 44.5642 81.8228 38.772 77.9324 34.3891L70.4536 41.0275C72.7816 43.6502 74.1944 47.1025 74.1944 50.8889H84.1944ZM77.9301 34.3865C79.1495 35.7584 79.2893 37.7823 78.283 39.307L69.9369 33.7986C68.4539 36.0455 68.6588 39.0083 70.456 41.0302L77.9301 34.3865ZM78.2834 39.3063C80.8777 35.3743 82.3889 30.6661 82.3889 25.6111H72.3889C72.3889 28.645 71.4878 31.4479 69.9365 33.7992L78.2834 39.3063ZM82.3889 25.6111C82.3889 11.8707 71.2585 0.75 57.5277 0.75V10.75C65.7381 10.75 72.3889 17.3959 72.3889 25.6111H82.3889ZM55.1971 32.3509C57.3694 32.1132 59.4427 31.5417 61.3682 30.6839L57.2984 21.5495C56.3061 21.9916 55.2377 22.2868 54.1095 22.4102L55.1971 32.3509ZM55.1816 23.3304C54.4328 24.4461 53.486 25.4123 52.3954 26.179L58.1462 34.3599C60.2406 32.8877 62.0527 31.0372 63.485 28.9029L55.1816 23.3304ZM50.2748 30.4693C50.2869 30.771 50.2925 31.029 50.2925 31.3167H60.2925C60.2925 30.8821 60.2836 30.4901 60.2668 30.0696L50.2748 30.4693ZM50.2925 31.3167C50.2925 39.7031 43.8346 49.1389 32.1055 49.1389V59.1389C50.3631 59.1389 60.2925 44.1635 60.2925 31.3167H50.2925ZM32.1055 49.1389C28.4867 49.1389 25.1234 48.0905 22.2818 46.2985L16.9476 54.757C21.321 57.515 26.5233 59.1389 32.1055 59.1389V49.1389ZM19.0533 55.4962C19.8833 55.5899 20.7208 55.6361 21.5611 55.6361V45.6361C21.0868 45.6361 20.6244 45.61 20.1761 45.5594L19.0533 55.4962ZM21.5611 55.6361C26.499 55.6361 31.089 53.9961 34.7488 51.1553L28.6172 43.2558C26.6942 44.7484 24.257 45.6361 21.5611 45.6361V55.6361ZM31.7842 42.2066C30.3437 42.1774 29.1991 41.2501 28.8192 40.0892L19.3152 43.1996C21.0153 48.3944 25.8867 52.0892 31.5818 52.2045L31.7842 42.2066ZM23.005 46.5303C23.9662 46.7393 24.8604 46.7889 25.6019 46.7889V36.7889C25.2962 36.7889 25.1648 36.7663 25.1293 36.7586L23.005 46.5303ZM25.6019 46.7889C26.8337 46.7889 27.9821 46.6093 29.023 46.3354L26.478 36.6646C26.1467 36.7518 25.8579 36.7889 25.6019 36.7889V46.7889ZM28.7009 36.5912C27.2432 36.3089 26.2108 35.0535 26.2108 33.6278H16.2108C16.2108 40.002 20.7972 45.2466 26.8001 46.4088L28.7009 36.5912ZM26.2108 33.6278V33.5194H16.2108V33.6278H26.2108ZM18.7765 37.8868C20.5651 38.8838 22.6049 39.4704 24.7702 39.5287L25.0397 29.5324C24.5256 29.5185 24.0592 29.3829 23.6451 29.152L18.7765 37.8868ZM27.6594 30.3576C26.7942 29.7866 26.2794 28.8584 26.2794 27.85H16.2794C16.2794 32.4028 18.639 36.3856 22.1506 38.7035L27.6594 30.3576ZM26.2794 27.85C26.2794 27.3412 26.419 26.8386 26.6911 26.3756L18.0705 21.3077C16.9415 23.2281 16.2794 25.4699 16.2794 27.85H26.2794ZM18.5345 27.0364C23.4273 32.9271 30.7174 36.7757 38.9137 37.2124L39.4457 27.2265C34.0858 26.941 29.3726 24.434 26.2271 20.647L18.5345 27.0364ZM44.0593 31.1287C43.9932 30.833 43.9702 30.6221 43.9702 30.3778H33.9702C33.9702 31.4334 34.0918 32.3781 34.3001 33.3102L44.0593 31.1287ZM43.9702 30.3778C43.9702 28.7787 45.297 27.3611 47.1169 27.3611V17.3611C39.9379 17.3611 33.9702 23.0935 33.9702 30.3778H43.9702ZM47.1169 27.3611C48.0512 27.3611 48.877 27.7457 49.4541 28.3481L56.6747 21.4297C54.2762 18.9265 50.8698 17.3611 47.1169 17.3611V27.3611ZM54.0193 29.7969C56.4052 29.3327 58.6983 28.4866 60.8 27.2333L55.6782 18.6445C54.631 19.269 53.4359 19.7229 52.1095 19.9809L54.0193 29.7969ZM53.4813 21.4017C53.2562 22.0984 52.7684 22.6961 52.1503 23.0543L57.1636 31.7068C59.911 30.115 62.0087 27.5349 62.997 24.476L53.4813 21.4017ZM54.6569 22.3806H54.6533V32.3806H54.6569V22.3806Z" fill="white" mask="url(#path-1-outside-1_804_247)"/>
</svg>
