<svg width="228" height="228" viewBox="0 0 228 228" fill="none" xmlns="http://www.w3.org/2000/svg">
<path d="M215.079 141.427C219.044 134.378 221 126.64 221 118.353C221 109.868 218.796 101.927 214.423 94.6628C211.125 89.1469 206.862 84.6323 201.682 81.18C202.365 77.9526 202.696 74.6016 202.696 71.1429C202.696 63.0809 200.798 55.5269 196.964 48.6094C193.161 41.7461 187.94 36.2205 181.349 32.151C174.695 28.0423 167.375 25.9732 159.536 25.9732C156.299 25.9732 153.15 26.3245 150.102 27.039C146.714 21.852 142.374 17.4943 137.11 14.0181C130.08 9.37563 122.326 7 114 7C105.674 7 97.9204 9.37563 90.8903 14.0181C85.6264 17.4943 81.2859 21.852 77.8978 27.039C74.8503 26.3245 71.7007 25.9732 68.4643 25.9732C60.6251 25.9732 53.2943 28.0419 46.6125 32.1401C39.9887 36.2027 34.7295 41.7205 30.8849 48.5796C27.0049 55.5018 25.0804 63.0664 25.0804 71.1429C25.0804 74.5483 25.469 77.9103 26.2373 81.2199C21.1261 84.6431 16.8994 89.1482 13.5843 94.6513L19.5804 98.2634L13.5843 94.6513C9.20647 101.918 7 109.864 7 118.353C7 126.64 8.95623 134.378 12.9213 141.427C16.071 147.027 20.142 151.714 25.1166 155.414C25.0927 155.903 25.0804 156.385 25.0804 156.857C25.0804 164.934 27.0049 172.498 30.8849 179.42C34.7295 186.279 39.9887 191.797 46.6125 195.86C53.2943 199.958 60.6251 202.027 68.4643 202.027C71.6808 202.027 74.8116 201.68 77.8417 200.974C81.2129 206.25 85.5338 210.653 90.7964 214.105C97.7794 218.686 105.532 221 113.888 221C122.274 221 130.056 218.632 137.071 213.971C142.308 210.491 146.646 206.133 150.063 200.952C153.123 201.672 156.286 202.027 159.536 202.027C167.375 202.027 174.695 199.958 181.349 195.849C187.94 191.779 193.161 186.254 196.964 179.391C200.798 172.473 202.696 164.919 202.696 156.857C202.696 156.417 202.693 155.984 202.686 155.561C207.75 151.838 211.887 147.101 215.079 141.427Z" fill="#55ACEE" stroke="white" stroke-width="14" stroke-linejoin="round"/>
<path d="M73.5981 121.924C73.5981 123.933 74.2678 125.607 75.6071 126.946L98.5981 149.938C100.533 151.426 102.542 152.17 104.625 152.17C106.708 152.17 108.42 151.054 109.759 148.821L151.054 86.9911C151.798 85.8007 152.17 84.4986 152.17 83.0849C152.17 81.8944 151.891 80.7783 151.333 79.7367C150.774 78.695 150.012 77.8393 149.045 77.1697C147.78 76.3512 146.403 75.942 144.915 75.942C143.799 75.942 142.72 76.2024 141.679 76.7233C140.637 77.2441 139.744 77.9881 139 78.9554L102.616 133.643L85.8749 116.902C84.4612 115.488 82.7871 114.781 80.8526 114.781C78.9925 114.781 77.2812 115.488 75.7187 116.902C74.305 118.241 73.5981 119.915 73.5981 121.924Z" fill="white"/>
</svg>
