<svg width="126" height="126" xmlns="http://www.w3.org/2000/svg"><g fill="none" fill-rule="evenodd"><path d="M126 65.742c0 4.5-1.055 8.625-3.164 12.375-2.11 3.75-4.945 6.68-8.508 8.79.094.843.14 1.874.14 3.093 0 4.36-1.019 8.379-3.058 12.059-2.039 3.68-4.805 6.597-8.297 8.754-3.492 2.156-7.3 3.234-11.425 3.234-2.86 0-5.532-.516-8.016-1.547-2.016 4.078-4.875 7.348-8.578 9.809C71.39 124.769 67.336 126 62.93 126c-4.407 0-8.45-1.207-12.13-3.621-3.679-2.414-6.503-5.707-8.472-9.879-2.484 1.031-5.156 1.547-8.016 1.547-4.125 0-7.945-1.078-11.46-3.234-3.516-2.157-6.305-5.075-8.368-8.754-2.062-3.68-3.093-7.7-3.093-12.059 0-.89.093-1.922.28-3.094-3.562-2.11-6.398-5.039-8.507-8.789C1.054 74.367 0 70.242 0 65.742c0-4.547 1.172-8.765 3.516-12.656 2.343-3.89 5.484-6.773 9.421-8.648-1.03-2.766-1.546-5.579-1.546-8.438 0-4.36 1.03-8.379 3.093-12.059 2.063-3.68 4.852-6.597 8.368-8.753 3.515-2.157 7.335-3.235 11.46-3.235 2.86 0 5.532.516 8.016 1.547 1.969-4.078 4.817-7.348 8.543-9.809C54.598 1.231 58.641 0 63 0c4.36 0 8.402 1.23 12.129 3.691 3.726 2.461 6.574 5.73 8.543 9.809 2.484-1.031 5.156-1.547 8.016-1.547 4.125 0 7.933 1.078 11.425 3.235 3.492 2.156 6.258 5.074 8.297 8.753 2.04 3.68 3.059 7.7 3.059 12.059 0 3.047-.469 5.86-1.406 8.438 3.984 1.921 7.124 4.804 9.421 8.648 2.344 3.89 3.516 8.11 3.516 12.656z" fill="#55ACEE"/><path d="M37.547 67.992c0 1.266.422 2.32 1.266 3.164l14.484 14.485c1.219.937 2.484 1.406 3.797 1.406 1.312 0 2.39-.703 3.234-2.11l26.016-38.953c.469-.75.703-1.57.703-2.46a4.4 4.4 0 00-.527-2.11 4.555 4.555 0 00-1.442-1.617 4.696 4.696 0 00-2.601-.774c-.704 0-1.383.164-2.04.493a4.848 4.848 0 00-1.687 1.406L55.828 75.375 45.281 64.828c-.89-.89-1.945-1.336-3.164-1.336-1.172 0-2.25.445-3.234 1.336-.89.844-1.336 1.899-1.336 3.164z" fill="#FFF"/></g></svg>